<?xml version="1.0" encoding="UTF-8"?>
<svg xmlns="http://www.w3.org/2000/svg" xmlns:xlink="http://www.w3.org/1999/xlink"
	viewBox="0 0 1200 500" width="1200" height="500" id="svg">
	<!-- text -->
	<g font-size="25" font-family="serif" style="font-style:italic">
		<!-- row 1 (geses) -->
		<g>
			<g xml:id="geses3">
				<text x="283" y="100">geses</text>
				<text x="292" y="89">–––</text>
				<text x="292" y="86">–––</text>
				<text x="292" y="83">–––</text>
			</g>
			<g xml:id="deses3">
				<text x="383" y="100">deses</text>
				<text x="395" y="86">–––</text>
				<text x="395" y="83">–––</text>
				<text x="395" y="80">–––</text>
			</g>
			<g xml:id="asas3">
				<text x="488" y="100">asas</text>
				<text x="493" y="89">–––</text>
				<text x="493" y="86">–––</text>
				<text x="493" y="83">–––</text>
			</g>
			<g xml:id="eses3">
				<text x="588" y="100">eses</text>
				<text x="591" y="89">–––</text>
				<text x="591" y="86">–––</text>
				<text x="591" y="83">–––</text>
			</g>
			<g xml:id="bb3">
				<text x="698" y="100">bb</text>
				<text x="698" y="86">––</text>
				<text x="698" y="83">––</text>
				<text x="698" y="80">––</text>
			</g>
			<g xml:id="fes3">
				<text x="793" y="100">fes</text>
				<text x="795" y="86">––</text>
				<text x="795" y="83">––</text>
				<text x="795" y="80">––</text>
			</g>
		</g>
		<!-- row 2 (asas) -->
		<g>
			<g xml:id="asas2">
				<text x="138" y="150">asas</text>
				<text x="141" y="140">–––</text>
				<text x="141" y="137">–––</text>
			</g>
			<g xml:id="eses2">
				<text x="238" y="150">eses</text>
				<text x="241" y="140">–––</text>
				<text x="241" y="137">–––</text>
			</g>
			<g xml:id="bb2">
				<text x="348" y="150">bb</text>
				<text x="348" y="137">––</text>
				<text x="348" y="134">––</text>
			</g>
			<g xml:id="fes2">
				<text x="443" y="150">fes</text>
				<text x="447" y="137">––</text>
				<text x="447" y="134">––</text>
			</g>
			<g xml:id="ces2">
				<text x="543" y="150">ces</text>
				<text x="548" y="140">––</text>
				<text x="548" y="137">––</text>
			</g>
			<g xml:id="ges2">
				<text x="643" y="150">ges</text>
				<text x="648" y="140">––</text>
				<text x="648" y="137">––</text>
			</g>
			<g xml:id="des2">
				<text x="743" y="150">des</text>
				<text x="748" y="137">––</text>
				<text x="748" y="134">––</text>
			</g>
			<g xml:id="as2">
				<text x="848" y="150">as</text>
				<text x="853" y="140">–</text>
				<text x="853" y="137">–</text>
			</g>
			<g xml:id="es2">
				<text x="948" y="150">es</text>
				<text x="953" y="140">–</text>
				<text x="953" y="137">–</text>
			</g>
		</g>
		<!-- row 3 (fes) -->
		<g>
			<g xml:id="fes1">
				<text x="093" y="200">fes</text>
				<text x="097" y="187">––</text>
			</g>
			<g xml:id="ces1">
				<text x="193" y="200">ces</text>
				<text x="198" y="190">––</text>
			</g>
			<g xml:id="ges1">
				<text x="293" y="200">ges</text>
				<text x="298" y="190">––</text>
			</g>
			<g xml:id="des1">
				<text x="393" y="200">des</text>
				<text x="397" y="187">––</text>
			</g>
			<g xml:id="as1">
				<text x="498" y="200">as</text>
				<text x="503" y="190">–</text>
			</g>
			<g xml:id="es1">
				<text x="598" y="200">es</text>
				<text x="603" y="190">–</text>
			</g>
			<g xml:id="b1">
				<text x="703" y="200">b</text>
				<text x="703" y="187">–</text>
			</g>
			<g xml:id="f1">
				<text x="803" y="200">f</text>
				<text x="803" y="187">–</text>
			</g>
			<g xml:id="c1">
				<text x="903" y="200">c</text>
				<text x="904" y="190">–</text>
			</g>
			<g xml:id="g1">
				<text x="1003" y="200">g</text>
				<text x="1004" y="190">–</text>
			</g>
			<g xml:id="d1">
				<text x="1103" y="200">d</text>
				<text x="1106" y="187">–</text>
			</g>
		</g>
		<!-- row 4 (des) -->
		<g>
			<text xml:id="des0" x="043" y="250">des</text>
			<text xml:id="as0" x="148" y="250">as</text>
			<text xml:id="es0" x="248" y="250">es</text>
			<text xml:id="b0" x="353" y="250">b</text>
			<text xml:id="f0" x="453" y="250">f</text>
			<text xml:id="C0" x="550" y="250">C</text>
			<text xml:id="g0" x="653" y="250">g</text>
			<text xml:id="d0" x="753" y="250">d</text>
			<text xml:id="a0" x="853" y="250">a</text>
			<text xml:id="e0" x="953" y="250">e</text>
			<text xml:id="h0" x="1053" y="250">h</text>
			<text xml:id="fis0" x="1143" y="250">fis</text>
		</g>
		<!-- row 5 (f) -->
		<g>
			<g xml:id="f-1">
				<text x="103" y="300">f</text>
				<text x="100" y="306">–</text>
			</g>
			<g xml:id="c-1">
				<text x="203" y="300">c</text>
				<text x="203" y="308">–</text>
			</g>
			<g xml:id="g-1">
				<text x="303" y="300">g</text>
				<text x="303" y="305">–</text>
			</g>
			<g xml:id="d-1">
				<text x="403" y="300">d</text>
				<text x="403" y="308">–</text>
			</g>
			<g xml:id="a-1">
				<text x="503" y="300">a</text>
				<text x="503" y="308">–</text>
			</g>
			<g xml:id="e-1">
				<text x="603" y="300">e</text>
				<text x="603" y="308">–</text>
			</g>
			<g xml:id="h-1">
				<text x="703" y="300">h</text>
				<text x="703" y="308">–</text>
			</g>
			<g xml:id="fis-1">
				<text x="793" y="300">fis</text>
				<text x="801" y="308">–</text>
			</g>
			<g xml:id="cis-1">
				<text x="893" y="300">cis</text>
				<text x="893" y="308">––</text>
			</g>
			<g xml:id="gis-1">
				<text x="993" y="300">gis</text>
				<text x="1006" y="308">–</text>
			</g>
			<g xml:id="dis-1">
				<text x="1093" y="300">dis</text>
				<text x="1093" y="308">––</text>
			</g>
		</g>
		<!-- row 6 (e) -->
		<g>
			<g xml:id="e-2">
				<text x="253" y="350">e</text>
				<text x="253" y="358">–</text>
				<text x="253" y="361">–</text>
			</g>
			<g xml:id="h-2">
				<text x="353" y="350">h</text>
				<text x="353" y="358">–</text>
				<text x="353" y="361">–</text>
			</g>
			<g xml:id="fis-2">
				<text x="443" y="350">fis</text>
				<text x="450" y="358">–</text>
				<text x="450" y="361">–</text>
			</g>
			<g xml:id="cis-2">
				<text x="543" y="350">cis</text>
				<text x="543" y="358">––</text>
				<text x="543" y="361">––</text>
			</g>
			<g xml:id="gis-2">
				<text x="643" y="350">gis</text>
				<text x="658" y="358">–</text>
				<text x="646" y="361">––</text>
			</g>
			<g xml:id="dis-2">
				<text x="743" y="350">dis</text>
				<text x="743" y="358">––</text>
				<text x="743" y="361">––</text>
			</g>
			<g xml:id="ais-2">
				<text x="843" y="350">ais</text>
				<text x="843" y="358">––</text>
				<text x="843" y="361">––</text>
			</g>
		</g>
		<!-- row 7 (gis) -->
		<g>
			<g xml:id="gis-3">
				<text x="293" y="400">gis</text>
				<text x="308" y="408">–</text>
				<text x="296" y="411">––</text>
				<text x="296" y="414">––</text>
			</g>
			<g xml:id="dis-3">
				<text x="393" y="400">dis</text>
				<text x="393" y="408">––</text>
				<text x="393" y="411">––</text>
				<text x="393" y="414">––</text>
			</g>
			<g xml:id="ais-3">
				<text x="493" y="400">ais</text>
				<text x="493" y="408">––</text>
				<text x="493" y="411">––</text>
				<text x="493" y="414">––</text>
			</g>
			<g xml:id="eis-3">
				<text x="593" y="400">eis</text>
				<text x="593" y="408">––</text>
				<text x="593" y="411">––</text>
				<text x="593" y="414">––</text>
			</g>
			<g xml:id="his-3">
				<text x="693" y="400">his</text>
				<text x="693" y="408">––</text>
				<text x="693" y="411">––</text>
				<text x="693" y="414">––</text>
			</g>
			<g xml:id="fisis-3">
				<text x="783" y="400">fisis</text>
				<text x="789" y="408">––</text>
				<text x="789" y="411">––</text>
				<text x="789" y="414">––</text>
			</g>
		</g>
	</g>
	<!-- lines -->
	<g stroke="black" stroke-width="1">
		<!-- row 1 horizontals (geses) -->
		<g>
			<line x1="340" y1="95" x2="380" y2="95"/>
			<line x1="440" y1="95" x2="485" y2="95"/>
			<line x1="535" y1="95" x2="585" y2="95"/>
			<line x1="635" y1="95" x2="690" y2="95"/>
			<line x1="730" y1="95" x2="790" y2="95"/>
		</g>
		<!-- row 1-2 diagonals -->
		<g>
			<!-- \ -->
			<line x1="120" y1="105" x2="145" y2="130"/>
			<line x1="220" y1="105" x2="245" y2="130"/>
			<line x1="320" y1="105" x2="345" y2="130"/>
			<line x1="420" y1="105" x2="445" y2="130"/>
			<line x1="520" y1="105" x2="545" y2="130"/>
			<line x1="620" y1="105" x2="645" y2="130"/>
			<line x1="720" y1="105" x2="745" y2="130"/>
			<line x1="820" y1="105" x2="845" y2="130"/>
			<line x1="920" y1="105" x2="945" y2="130"/>
			<!-- / -->
			<line x1="175" y1="130" x2="200" y2="105"/>
			<line x1="275" y1="130" x2="300" y2="105"/>
			<line x1="375" y1="130" x2="400" y2="105"/>
			<line x1="475" y1="130" x2="500" y2="105"/>
			<line x1="575" y1="130" x2="600" y2="105"/>
			<line x1="675" y1="130" x2="700" y2="105"/>
			<line x1="775" y1="130" x2="800" y2="105"/>
			<line x1="875" y1="130" x2="900" y2="105"/>
			<line x1="975" y1="130" x2="1000" y2="105"/>
		</g>
		<!-- row 2 horizontals (asas) -->
		<g>
			<line x1="80" y1="145" x2="140" y2="145"/>
			<line x1="180" y1="145" x2="240" y2="145"/>
			<line x1="280" y1="145" x2="340" y2="145"/>
			<line x1="380" y1="145" x2="440" y2="145"/>
			<line x1="480" y1="145" x2="540" y2="145"/>
			<line x1="580" y1="145" x2="640" y2="145"/>
			<line x1="680" y1="145" x2="740" y2="145"/>
			<line x1="780" y1="145" x2="840" y2="145"/>
			<line x1="880" y1="145" x2="940" y2="145"/>
			<line x1="980" y1="145" x2="1040" y2="145"/>
		</g>
		<!-- row 2-3 diagonals -->
		<g>
			<!-- \ -->
			<line x1="70" y1="155" x2="095" y2="180"/>
			<line x1="170" y1="155" x2="195" y2="180"/>
			<line x1="270" y1="155" x2="295" y2="180"/>
			<line x1="370" y1="155" x2="395" y2="180"/>
			<line x1="470" y1="155" x2="495" y2="180"/>
			<line x1="570" y1="155" x2="595" y2="180"/>
			<line x1="670" y1="155" x2="695" y2="180"/>
			<line x1="770" y1="155" x2="795" y2="180"/>
			<line x1="870" y1="155" x2="895" y2="180"/>
			<line x1="970" y1="155" x2="995" y2="180"/>
			<line x1="1070" y1="155" x2="1095" y2="180"/>
			<!-- / -->
			<line x1="125" y1="180" x2="150" y2="155"/>
			<line x1="225" y1="180" x2="250" y2="155"/>
			<line x1="325" y1="180" x2="350" y2="155"/>
			<line x1="425" y1="180" x2="450" y2="155"/>
			<line x1="525" y1="180" x2="550" y2="155"/>
			<line x1="625" y1="180" x2="650" y2="155"/>
			<line x1="725" y1="180" x2="750" y2="155"/>
			<line x1="825" y1="180" x2="850" y2="155"/>
			<line x1="925" y1="180" x2="950" y2="155"/>
			<line x1="1025" y1="180" x2="1050" y2="155"/>
			<line x1="1125" y1="180" x2="1150" y2="155"/>
		</g>
		<!-- row 3 horizontals (fes) -->
		<g>
			<line x1="30" y1="195" x2="90" y2="195"/>
			<line x1="130" y1="195" x2="190" y2="195"/>
			<line x1="230" y1="195" x2="290" y2="195"/>
			<line x1="330" y1="195" x2="390" y2="195"/>
			<line x1="430" y1="195" x2="490" y2="195"/>
			<line x1="530" y1="195" x2="590" y2="195"/>
			<line x1="630" y1="195" x2="690" y2="195"/>
			<line x1="730" y1="195" x2="790" y2="195"/>
			<line x1="830" y1="195" x2="890" y2="195"/>
			<line x1="930" y1="195" x2="990" y2="195"/>
			<line x1="1030" y1="195" x2="1090" y2="195"/>
			<line x1="1130" y1="195" x2="1190" y2="195"/>
		</g>
		<!-- row 3-4 diagonals -->
		<g>
			<!-- / -->
			<line x1="75" y1="230" x2="100" y2="205"/>
			<line x1="175" y1="230" x2="200" y2="205"/>
			<line x1="275" y1="230" x2="300" y2="205"/>
			<line x1="375" y1="230" x2="400" y2="205"/>
			<line x1="475" y1="230" x2="500" y2="205"/>
			<line x1="575" y1="230" x2="600" y2="205"/>
			<line x1="675" y1="230" x2="700" y2="205"/>
			<line x1="775" y1="230" x2="800" y2="205"/>
			<line x1="875" y1="230" x2="900" y2="205"/>
			<line x1="975" y1="230" x2="1000" y2="205"/>
			<line x1="1075" y1="230" x2="1100" y2="205"/>
			<!-- \ -->
			<line x1="20" y1="205" x2="45" y2="230"/>
			<line x1="120" y1="205" x2="145" y2="230"/>
			<line x1="220" y1="205" x2="245" y2="230"/>
			<line x1="320" y1="205" x2="345" y2="230"/>
			<line x1="420" y1="205" x2="445" y2="230"/>
			<line x1="520" y1="205" x2="545" y2="230"/>
			<line x1="620" y1="205" x2="645" y2="230"/>
			<line x1="720" y1="205" x2="745" y2="230"/>
			<line x1="820" y1="205" x2="845" y2="230"/>
			<line x1="920" y1="205" x2="945" y2="230"/>
			<line x1="1020" y1="205" x2="1045" y2="230"/>
			<line x1="1120" y1="205" x2="1145" y2="230"/>
		</g>
		<!-- row 4 horizontals (des) -->
		<g>
			<line x1="10" y1="245" x2="40" y2="245"/>
			<line x1="80" y1="245" x2="140" y2="245"/>
			<line x1="180" y1="245" x2="240" y2="245"/>
			<line x1="280" y1="245" x2="340" y2="245"/>
			<line x1="380" y1="245" x2="440" y2="245"/>
			<line x1="480" y1="245" x2="540" y2="245"/>
			<line x1="580" y1="245" x2="640" y2="245"/>
			<line x1="680" y1="245" x2="740" y2="245"/>
			<line x1="780" y1="245" x2="840" y2="245"/>
			<line x1="880" y1="245" x2="940" y2="245"/>
			<line x1="980" y1="245" x2="1040" y2="245"/>
			<line x1="1080" y1="245" x2="1140" y2="245"/>
		</g>
		<!-- row 4-5 diagonals -->
		<g>
			<!-- \ -->
			<line x1="75" y1="260" x2="100" y2="285"/>
			<line x1="175" y1="260" x2="200" y2="285"/>
			<line x1="275" y1="260" x2="300" y2="285"/>
			<line x1="375" y1="260" x2="400" y2="285"/>
			<line x1="475" y1="260" x2="500" y2="285"/>
			<line x1="575" y1="260" x2="600" y2="285"/>
			<line x1="675" y1="260" x2="700" y2="285"/>
			<line x1="775" y1="260" x2="800" y2="285"/>
			<line x1="875" y1="260" x2="900" y2="285"/>
			<line x1="975" y1="260" x2="1000" y2="285"/>
			<line x1="1075" y1="260" x2="1100" y2="285"/>
			<line x1="1175" y1="260" x2="1190" y2="275"/>
			<!-- / -->
			<line x1="20" y1="285" x2="45" y2="260"/>
			<line x1="120" y1="285" x2="145" y2="260"/>
			<line x1="220" y1="285" x2="245" y2="260"/>
			<line x1="320" y1="285" x2="345" y2="260"/>
			<line x1="420" y1="285" x2="445" y2="260"/>
			<line x1="520" y1="285" x2="545" y2="260"/>
			<line x1="620" y1="285" x2="645" y2="260"/>
			<line x1="720" y1="285" x2="745" y2="260"/>
			<line x1="820" y1="285" x2="845" y2="260"/>
			<line x1="920" y1="285" x2="945" y2="260"/>
			<line x1="1020" y1="285" x2="1045" y2="260"/>
			<line x1="1120" y1="285" x2="1145" y2="260"/>
		</g>
		<!-- row 5 horizontals (f) -->
		<g>
			<line x1="30" y1="295" x2="90" y2="295"/>
			<line x1="130" y1="295" x2="190" y2="295"/>
			<line x1="230" y1="295" x2="290" y2="295"/>
			<line x1="330" y1="295" x2="390" y2="295"/>
			<line x1="430" y1="295" x2="490" y2="295"/>
			<line x1="530" y1="295" x2="590" y2="295"/>
			<line x1="630" y1="295" x2="690" y2="295"/>
			<line x1="730" y1="295" x2="790" y2="295"/>
			<line x1="830" y1="295" x2="890" y2="295"/>
			<line x1="930" y1="295" x2="990" y2="295"/>
			<line x1="1030" y1="295" x2="1090" y2="295"/>
			<line x1="1130" y1="295" x2="1190" y2="295"/>
		</g>
		<!-- row 5-6 diagonals -->
		<g>
			<!-- \ -->
			<line x1="120" y1="305" x2="145" y2="330"/>
			<line x1="220" y1="305" x2="245" y2="330"/>
			<line x1="320" y1="305" x2="345" y2="330"/>
			<line x1="420" y1="305" x2="445" y2="330"/>
			<line x1="520" y1="305" x2="545" y2="330"/>
			<line x1="620" y1="305" x2="645" y2="330"/>
			<line x1="720" y1="305" x2="745" y2="330"/>
			<line x1="820" y1="305" x2="845" y2="330"/>
			<line x1="920" y1="305" x2="945" y2="330"/>
			<line x1="1020" y1="305" x2="1045" y2="330"/>
			<line x1="1120" y1="305" x2="1145" y2="330"/>
			<!-- / -->
			<line x1="75" y1="330" x2="100" y2="305"/>
			<line x1="175" y1="330" x2="200" y2="305"/>
			<line x1="275" y1="330" x2="300" y2="305"/>
			<line x1="375" y1="330" x2="400" y2="305"/>
			<line x1="475" y1="330" x2="500" y2="305"/>
			<line x1="575" y1="330" x2="600" y2="305"/>
			<line x1="675" y1="330" x2="700" y2="305"/>
			<line x1="775" y1="330" x2="800" y2="305"/>
			<line x1="875" y1="330" x2="900" y2="305"/>
			<line x1="975" y1="330" x2="1000" y2="305"/>
			<line x1="1075" y1="330" x2="1100" y2="305"/>
		</g>
		<!-- row 6 horizontals (e) -->
		<g>
			<line x1="180" y1="345" x2="240" y2="345"/>
			<line x1="280" y1="345" x2="340" y2="345"/>
			<line x1="380" y1="345" x2="440" y2="345"/>
			<line x1="480" y1="345" x2="540" y2="345"/>
			<line x1="580" y1="345" x2="640" y2="345"/>
			<line x1="680" y1="345" x2="740" y2="345"/>
			<line x1="780" y1="345" x2="840" y2="345"/>
			<line x1="880" y1="345" x2="940" y2="345"/>
		</g>
		<!-- row 6-7 diagonals -->
		<g>
			<!-- \ -->
			<line x1="275" y1="360" x2="300" y2="385"/>
			<line x1="375" y1="360" x2="400" y2="385"/>
			<line x1="475" y1="360" x2="500" y2="385"/>
			<line x1="575" y1="360" x2="600" y2="385"/>
			<line x1="675" y1="360" x2="700" y2="385"/>
			<line x1="775" y1="360" x2="800" y2="385"/>
			<!-- / -->
			<line x1="220" y1="385" x2="245" y2="360"/>
			<line x1="320" y1="385" x2="345" y2="360"/>
			<line x1="420" y1="385" x2="445" y2="360"/>
			<line x1="520" y1="385" x2="545" y2="360"/>
			<line x1="620" y1="385" x2="645" y2="360"/>
			<line x1="720" y1="385" x2="745" y2="360"/>
			<line x1="820" y1="385" x2="845" y2="360"/>
		</g>
		<!-- row 7 horizontals (gis) -->
		<g>
			<line x1="330" y1="395" x2="390" y2="395"/>
			<line x1="430" y1="395" x2="490" y2="395"/>
			<line x1="530" y1="395" x2="590" y2="395"/>
			<line x1="630" y1="395" x2="690" y2="395"/>
			<line x1="730" y1="395" x2="780" y2="395"/>
		</g>
	</g>
	<!-- forms -->
	<g stroke="black" stroke-width="1">
		<circle cx="560" cy="244" r="30" fill="none" stroke-width="2"/>
		<polyline points="485,170 635,170 710,245 635,320 485,320 410,245 485,170" fill="none"
			stroke-width="3"/>
		<polyline points="435,120 685,120 815,245 685,370 435,370 310,245 435,120" fill="none"
			stroke-width="1" stroke-dasharray="5,3"/>
		<polyline points="385,070 735,070 910,245 735,420 385,420 210,245 385,070" fill="none"
			stroke-width="1" stroke-dasharray="5,3"/>
	</g>
</svg>
