<?xml version="1.0" encoding="UTF-8"?>
<svg id="Capa_1" xmlns="http://www.w3.org/2000/svg" version="1.1" viewBox="0 0 595.3 257.5">
  <!-- Generator: Adobe Illustrator 30.4.0, SVG Export Plug-In . SVG Version: 2.1.4 Build 226)  -->
  <defs>
    <style>
      .st0 {
        fill: #fff;
      }
    </style>
  </defs>
  <g id="tela1">
    <path class="st0" d="M33.4,252.6v-114.2h514v114.2H33.4ZM294.7,241.7l.8-4.7c0-.3.7-.8,1.6-1,8.4-2.3,18.7-4,29.9-5.6,24.7-3.5,57.2-6.1,86.6-5.7,13.8.2,11.3.5,20.3,2.2l12.6,2.4c1.5.3,3.7.4,5.2.2s2.6-.6,2.4-1.1-1.7-1.1-3.7-1.5l-15.8-3.3c-1.4-.3-2.3-.6-2.6-1.1-1.8-2.2-1.8-4.3-.7-6.5,1.8-3.6,5.6-7,12.2-10.3s9.6-4.5,15.7-6.6,10.6-3.2,17.7-4.5,3.2-.5,5.2-.5h15.1s7.6-.1,7.6-.1c2.5,0,4.4-.5,4.7-.9s-.8-1-3.1-1.3-4.9-.3-7.5-.2h-16c-2.2.1-3.9,0-5.7-.3-20.3-3.5-31.1-8.4-38-13.9-5.3-4.1-8.4-8.9-5.5-13.1s1.4-1,3-1.3l12.1-3c3.8-.9,7.2-1.8,3.1-2.6s-7.8,0-11.5.8l-13.1,3.1c-1.5.4-3.3.6-5.4.6-16.6.7-34.1,0-49.9-1.3-20.2-1.6-43.9-4.2-58.9-7.6l-9.8-2.2c-.9-.2-1.6-.6-1.8-.9-.7-1.3-.8-2.6-.6-4s0-1.2-.7-1.8-2.7-.9-5.1-1-5.6.6-5.6,1.3v2.4c0,1.3.5,2.5-.2,3.7s-1.9.9-3.2,1.2c-14.6,3.9-33.6,7-55.4,8.7-15.1,1.2-36.3,1.8-52.5,1.9-4.3,0-8.4,0-12.7,0s-3.6-.1-4.8-.4l-14.5-3.2c-2.7-.6-5.5-1.2-8.7-1.6s-4.3-.3-6.1,0-2.9.7-1.8,1.2,3.1,1.1,5.2,1.6l14.3,3.2c1.1.3,2.2.6,2.4.9.5,1.2.9,2.4.7,3.6-.5,2.8-2.4,5.5-5.6,8.2s-6.1,4.1-10.8,6.1c-7.1,3-18.6,6.8-29.7,9s-3.7.5-5.8.5l-19.2.3c-4.7,0-9.8.1-10.1,1.1s4.2,1.3,9.3,1.3h21.3c1.6-.2,3.7,0,4.9.1,6.6,1,12.1,2.3,17.2,3.7,17.9,5,28.1,11.1,29.7,17.5s.4,4.3-1.3,6.4-1.9,1.3-4.1,1.8l-14.2,3.5c-1.8.5-3.4,1-3.8,1.6s1.5.6,2.5.8c3.2.4,7.6-.3,10.7-1l14.1-3.1c1.4-.3,3.4-.5,5.4-.6,8.5-.4,16.8-.4,25.5-.1,15.6.5,30.5,1.5,44.7,3.1s36.8,4.8,49.9,8.6,1.2.8,1.1,1.1l-.2,5.6c0,.6,1.6,1,3.7,1.1s4.3-.1,5.4-.6,1.6-1.2,1.7-1.8Z"/>
    <path d="M294.7,241.7c-.1.7-.5,1.3-1.7,1.8s-3.4.7-5.4.6-3.7-.6-3.7-1.1l.2-5.6c0-.4-.2-.9-1.1-1.1-13.1-3.8-30.6-6.5-49.9-8.6s-29-2.6-44.7-3.1-17-.2-25.5.1-3.9.2-5.4.6l-14.1,3.1c-3.1.7-7.5,1.4-10.7,1s-2.6-.4-2.5-.8c.4-.6,1.9-1.2,3.8-1.6l14.2-3.5c2.3-.6,3.5-1.1,4.1-1.8,1.7-2.1,1.9-4.2,1.3-6.4-1.7-6.4-11.8-12.5-29.7-17.5-5.1-1.4-10.6-2.6-17.2-3.7s-3.3-.3-4.9-.3h-21.3c-5,.2-9.6-.2-9.3-1.1s5.5-1,10.1-1.1l19.2-.3c2.1,0,4.3-.2,5.8-.5,11.1-2.2,22.6-6,29.7-9s8.2-3.9,10.8-6.1,5.1-5.4,5.6-8.2-.2-2.4-.7-3.6-1.2-.7-2.4-.9l-14.3-3.2c-2.1-.5-3.9-1-5.2-1.6s.3-.9,1.8-1.2,4.1-.3,6.1,0c3.2.5,6,1,8.7,1.6l14.5,3.2c1.2.3,3.1.4,4.8.4,4.3,0,8.4,0,12.7,0,16.2-.1,37.4-.7,52.5-1.9,21.7-1.7,40.7-4.8,55.4-8.7s3-.8,3.2-1.2c.7-1.3.2-2.5.2-3.7v-2.4c0-.7,2.6-1.3,5.6-1.3s4.4.4,5.1,1,.8,1.2.7,1.8c-.2,1.3,0,2.6.6,4s.9.7,1.8.9l9.8,2.2c15,3.4,38.7,6,58.9,7.6,15.8,1.3,33.3,1.9,49.9,1.3,2.1,0,3.9-.3,5.4-.6l13.1-3.1c3.7-.9,7.5-1.5,11.5-.8s.7,1.7-3.1,2.6l-12.1,3c-1.6.4-2.6.8-3,1.3-2.9,4.3.2,9,5.5,13.1,6.9,5.4,17.8,10.3,38,13.9,1.7.3,3.4.4,5.7.4h16c2.5-.1,5.3,0,7.5.1s3.4.8,3.1,1.3-2.1.9-4.7.9h-7.6c0,0-15.1.1-15.1.1-2,0-3.7.2-5.2.5-7.1,1.3-12.8,2.8-17.7,4.5s-11,4.3-15.7,6.6c-6.6,3.3-10.5,6.7-12.2,10.3-1.1,2.2-1.1,4.3.7,6.5s1.2.8,2.6,1.1l15.8,3.3c2,.4,3.5.9,3.7,1.5s-.8.9-2.4,1.1-3.7.1-5.2-.2l-12.6-2.4c-9-1.7-6.5-2-20.3-2.2-29.4-.4-61.9,2.3-86.6,5.7-11.2,1.6-21.5,3.3-29.9,5.6s-1.6.7-1.6,1l-.8,4.7ZM383.5,171c1.1,0,2.2-.3,3-.5l15.1-3.3,12.9-2.9c-16.3,0-31.3-.5-46.2-1.7-15.7-1.3-30.5-2.9-44.5-4.9s-15.2-2.5-22.6-4.1l-.7,2.9-.6,5.9c0,.2.2.7.7.8,5.3,1.6,11.3,2.9,18.5,4.1,18.4,3,41.6,4.7,64.3,3.4ZM250.4,170.3c15.3-1.1,31-3.6,39.3-6.6l.6-4.6c.2-1.5.3-2.9,0-4.4-8.7,2-17.5,3.7-27.7,5.1-12.8,1.8-26.6,3.1-41.6,3.8s-31.8,1.1-48.5,1.1l31.8,6.8c1.4.2,3.4.2,5,.2,13.9,0,27.6-.4,41.2-1.4ZM196.3,180.7c2.8-2.4,3.3-4.7,1.4-7.1s-1.1-.5-2-.7l-26.5-5.7-6.3-1.3c-.4,6.7-6.3,12.7-21.4,18.4-4.4,1.7-8.7,3.3-14.2,4.8l-8.9,2.4h8.8s35.2,0,35.2,0c1.8,0,3.6-.1,4.9-.4,14.2-2.6,24.3-6.5,28.9-10.4ZM418.2,191.5c1.4.2,2.7.3,4.3.3h41.9c-18.7-4.2-28.9-8.9-35.7-14.4-4.6-3.7-6.6-7.5-6.1-11.4l-4.3.8-22.5,4.9c-1.8.4-3.9.8-5.2,1.2-1.9,1.5-2.5,3-2.3,4.5.7,5.4,10,10.7,29.9,14ZM339.5,180.1c2.5-.1,4.1-.2,5.8-.6l26.8-5.8c-11.6,0-22.4-.3-32.9-1.2-15-1.3-28.1-3.2-39.6-5.8l-.7,2.7-.8,6.3c9.2,3.3,23.5,5.2,41.4,4.4ZM243.4,180.2c10.9.3,21.1-.1,30.5-1.1,5.9-.7,10.8-1.7,14.3-3l1.1-8.6c-11.2,2.5-24.3,4.2-39.3,5.1-11.7.7-23.3,1-35.7,1.1l29.1,6.4ZM371,192h33.7c-7.4-1.8-12.8-3.4-17.2-5.4-7.7-3.5-10.5-7.3-9.1-11.2l-28.6,6.2c-5.9,3.7.2,7.6,14.7,9.8,1.8.4,3.8.5,6.6.5ZM222,191.2c12-2.1,17.7-5.4,14.7-8.7,0-.6-1-1-3-1.4l-25.1-5.6c0,3.5-3.1,6.8-10,9.9-4.7,2.2-11.1,4.1-18.9,6l36.4.2c2.3,0,3.9,0,5.8-.4ZM304.2,188.5l27.5-6.1c-6.9-.1-12.9-.3-18.8-.9-5.8-.6-10.6-1.5-15-2.5l-.5.7-1.1,10.6,7.9-1.8ZM252.5,182.3l34.1,7.9,1.3-10.9c-6.1,1.2-13,2-20.7,2.4-4.8.3-9.5.4-14.7.5ZM281.6,192.1l-19.8-4.6-15.1-3.4c-.1,2.9-4,5.5-13.2,7.7h3.8c0,0,44.2.4,44.2.4ZM301.2,192.2l51.4-.2c-10.1-2.2-15.1-4.9-14.5-8l-36.9,8.1ZM196.5,209.1c-.2-4.4-6.3-8.6-17.5-12.2-3.5-1.1-7.6-2-12.2-2.9s-3-.4-4.7-.4h-30.6c-3.6,0-7,0-10.6.1,10.6,2.3,19.1,4.7,25.7,7.5,9,3.8,14.5,7.9,16.4,12.2s.7,4.6.6,6.9l28.3-6.3c4.1-.8,4.7-3.5,4.6-5ZM230.8,205.5l3-.8c6.3-4.3,1.7-8.5-15.6-11h-38.6c6.7,1.5,12,3.2,16.1,5.1,4.7,2.1,7.6,4.3,9.1,6.6,1.1,1.9,1.4,3.7.9,5.6l25.1-5.7ZM245.9,202.1l34-8-46.7-.3c5.1,1.2,8.6,2.6,10.7,4.1,1.8,1.4,2,2.8,2,4.2ZM398,215.6l22.9,5.1c-.9-5.7,3.6-11,13.7-16.1,7.7-3.8,16.7-7.5,29.5-10.6h-8.6c0,0-33.2,0-33.2,0-1.2,0-2.8.1-3.6.3-4.8.9-8.9,1.8-12.4,2.9-14.5,4.6-23.6,10.8-16.6,16.4l8.3,2ZM377.8,211.1c-.6-3,.7-5.6,4.8-8.3,3.6-2.4,8.8-4.6,15.3-6.7l7.5-2h-10.9s-24.6,0-24.6,0c-1.6,0-3,.2-4.2.4-14.1,2.5-21,6.2-15.5,10.1l27.6,6.4ZM338.9,202.1c.4-3.1,5.3-5.7,14.5-7.9h-23.6s-24.7.1-24.7.1l33.8,7.8ZM313.4,204.6c6.7-.5,13.1-.6,20.4-.5l-37.6-8.7-.4,11.6c5.6-1.1,10.9-1.9,17.7-2.4ZM285.8,206.9l.3-1.2.5-10.1-18.7,4.4-17.4,4.1c13.8,0,25.5.7,35.3,2.8ZM295.5,219.7c10.7-2.3,23-3.9,36.8-5,13.3-1.1,26.7-1.5,41.3-1.5l-29.5-6.7c-6.4-.4-12.6-.5-19.1-.3-11,.3-20.6,1.5-27.2,3.4s-2,.6-2,.9l-.5,7.5.3,1.7ZM278.7,218.3l6.7,1.4.4-9.5c-9.8-3.6-27.8-4.8-45.9-3.6-1.4.2-3,.5-4.2.8l-25.2,5.6c25.2-.2,49.1,1.6,68.1,5.2ZM270.7,230.1l14,2.9.4-2.4.2-7c0-.2-.6-.5-1.2-.7-14.6-4.3-37.4-7.1-61.6-7.5s-14.9,0-22.3.3c-.8,0-2.2.3-2.9.4l-22.7,5-4.8,1.1c12.5-.1,24.4.2,36.3.8,23.5,1.3,45.4,3.7,64.6,7.1ZM306.9,230.9c11.2-1.9,22.7-3.5,35-4.9,13.1-1.4,26.5-2.3,40.7-3,10.5-.5,20.8-.6,31.8-.5l-30.4-6.8c-21.7-.8-45.9.4-64.7,2.8-8.5,1.1-15.9,2.4-22,4.1s-1.8.7-1.9,1.1l-.5,8.1.4,1.4,11.6-2.2Z"/>
    <path class="st0" d="M196.3,180.7c-4.6,3.9-14.7,7.8-28.9,10.4s-3.1.4-4.9.4h-35.2s-8.8,0-8.8,0l8.9-2.4c5.5-1.5,9.8-3.1,14.2-4.8,15.1-5.7,20.9-11.7,21.4-18.4l6.3,1.3,26.5,5.7c.9.2,1.8.5,2,.7,2,2.4,1.4,4.8-1.4,7.1Z"/>
    <path class="st0" d="M398,215.6l-8.3-2c-7-5.6,2-11.8,16.6-16.4,3.6-1.1,7.7-2,12.4-2.9s2.5-.3,3.6-.3h33.2c0-.1,8.6,0,8.6,0-12.8,3-21.9,6.8-29.5,10.6-10.1,5.1-14.7,10.4-13.7,16.1l-22.9-5.1Z"/>
    <path class="st0" d="M306.9,230.9l-11.6,2.2-.4-1.4.5-8.1c0-.4.8-.8,1.9-1.1,6.2-1.7,13.5-3,22-4.1,18.8-2.4,43-3.6,64.7-2.8l30.4,6.8c-11,0-21.3,0-31.8.5-14.2.6-27.6,1.6-40.7,3-12.4,1.4-23.9,3-35,4.9Z"/>
    <path class="st0" d="M418.2,191.5c-19.9-3.2-29.2-8.6-29.9-14s.4-3,2.3-4.5c1.3-.5,3.4-.8,5.2-1.2l22.5-4.9,4.3-.8c-.6,3.9,1.5,7.7,6.1,11.4,6.8,5.5,17,10.3,35.7,14.3h-41.9c-1.6.1-2.9,0-4.3-.2Z"/>
    <path class="st0" d="M196.5,209.1c0,1.5-.5,4.2-4.6,5l-28.3,6.3c.1-2.4.4-4.6-.6-6.9-1.9-4.3-7.5-8.4-16.4-12.2-6.7-2.8-15.1-5.3-25.7-7.5,3.6-.1,7-.1,10.6-.1h30.6c1.8,0,3.4.2,4.7.4,4.7.9,8.7,1.7,12.2,2.9,11.3,3.6,17.4,7.8,17.5,12.2Z"/>
    <path class="st0" d="M383.5,171c-22.8,1.2-45.9-.5-64.3-3.4-7.2-1.2-13.1-2.5-18.5-4.1s-.7-.6-.7-.8l.6-5.9.7-2.9c7.4,1.5,14.4,2.9,22.6,4.1,14,2,28.8,3.6,44.5,4.9,14.9,1.2,29.9,1.7,46.2,1.7l-12.9,2.9-15.1,3.3c-.8.1-1.9.4-3,.5Z"/>
    <path class="st0" d="M270.7,230.1c-19.2-3.4-41.1-5.7-64.6-7.1s-23.8-1-36.3-.8l4.8-1.1,22.7-5c.7-.2,2.1-.4,2.9-.4,7.5-.4,14.7-.5,22.3-.3,24.2.5,47,3.2,61.6,7.5.6.2,1.2.5,1.2.7l-.2,7-.4,2.4-14-2.9Z"/>
    <path class="st0" d="M250.4,170.3c-13.6,1-27.2,1.4-41.2,1.4-1.6,0-3.6,0-5-.2l-31.8-6.8c16.7,0,32.5-.4,48.5-1.1s28.8-2,41.6-3.8c10.2-1.4,19-3.1,27.7-5.1.4,1.5.2,2.9,0,4.4l-.6,4.6c-8.3,3-24,5.5-39.3,6.6Z"/>
    <path class="st0" d="M295.5,219.7l-.3-1.7.5-7.5c0-.3,1.1-.7,2-.9,6.6-1.9,16.3-3.1,27.2-3.4,6.5-.2,12.8,0,19.1.3l29.5,6.7c-14.6,0-28,.4-41.3,1.5-13.8,1.1-26.1,2.7-36.8,5Z"/>
    <path class="st0" d="M278.7,218.3c-19-3.6-42.9-5.4-68.1-5.2l25.2-5.6c1.2-.3,2.8-.6,4.2-.8,18.1-1.2,36,0,45.9,3.6l-.4,9.5-6.7-1.4Z"/>
    <path class="st0" d="M230.8,205.5l-25.1,5.7c.4-1.9.2-3.7-.9-5.6-1.5-2.3-4.4-4.5-9.1-6.6-4.1-2-9.4-3.6-16.1-5.2h38.6c17.4,2.6,21.9,6.8,15.6,11.1l-3,.8Z"/>
    <path class="st0" d="M339.5,180.1c-17.9.8-32.2-1.1-41.4-4.4l.8-6.3.7-2.7c11.4,2.6,24.6,4.5,39.6,5.8,10.6.9,21.4,1.2,32.9,1.2l-26.8,5.8c-1.8.4-3.3.5-5.8.6Z"/>
    <path class="st0" d="M377.8,211.1l-27.6-6.4c-5.4-3.9,1.5-7.6,15.5-10.1s2.6-.4,4.2-.4h24.6c0-.1,10.9,0,10.9,0l-7.5,2c-6.5,2.1-11.6,4.3-15.3,6.7-4.1,2.7-5.4,5.3-4.8,8.3Z"/>
    <path class="st0" d="M243.4,180.2l-29.1-6.4c12.4-.1,24-.4,35.7-1.1,15-.9,28.1-2.6,39.3-5.1l-1.1,8.6c-3.4,1.3-8.4,2.2-14.3,3-9.5,1-19.6,1.4-30.5,1.1Z"/>
    <path class="st0" d="M222,191.2c-1.9.3-3.5.4-5.8.4l-36.4-.2c7.8-1.9,14.2-3.8,18.9-6,6.8-3.1,10-6.4,10-9.9l25.1,5.6c2,.4,3,.8,3,1.4,3,3.3-2.6,6.6-14.7,8.7Z"/>
    <path class="st0" d="M371,192c-2.8,0-4.8-.1-6.6-.5-14.5-2.2-20.6-6.2-14.7-9.8l28.6-6.2c-1.3,3.9,1.4,7.7,9.1,11.2,4.4,2,9.8,3.6,17.2,5.2h-33.7Z"/>
    <path class="st0" d="M313.4,204.6c-6.7.5-12.1,1.3-17.7,2.4l.4-11.6,37.6,8.7c-7.3,0-13.7,0-20.4.5Z"/>
    <path class="st0" d="M301.2,192.2l36.9-8.1c-.6,3,4.4,5.8,14.5,8l-51.4.2Z"/>
    <path class="st0" d="M285.8,206.9c-9.8-2.1-21.5-2.9-35.3-2.8l17.4-4.1,18.7-4.4-.5,10.1-.3,1.2Z"/>
    <path class="st0" d="M304.2,188.5l-7.9,1.8,1.1-10.6.5-.7c4.4,1,9.2,1.9,15,2.5,5.9.6,11.9.8,18.8.9l-27.5,6.1Z"/>
    <path class="st0" d="M252.5,182.3c5.2,0,9.9-.2,14.7-.5,7.7-.5,14.6-1.2,20.7-2.4l-1.3,10.9-34.1-7.9Z"/>
    <path class="st0" d="M281.6,192.1l-44.2-.3h-3.8c9.1-2.2,13.1-4.9,13.2-7.8l15.1,3.4,19.8,4.6Z"/>
    <path class="st0" d="M338.9,202.1l-33.8-7.8h24.7c0,0,23.6-.1,23.6-.1-9.2,2.2-14.1,4.8-14.5,7.9Z"/>
    <path class="st0" d="M245.9,202.1c0-1.4-.2-2.8-2-4.2-2-1.5-5.5-2.8-10.7-4.1l46.7.3-34,8Z"/>
  </g>
  <g id="elefante1">
    <path class="st0" d="M310.3,187.3c5.2,1,10.5,1,15.6,0s6.4-2.2,8-4.9c5.1,1.6,10.4,1.8,15.6.9s6.9-2.5,7.3-6.3-.2-3.2-.7-4.9l-1.5-5.9-1.5-7c-1-4.9-2.8-9.4-4.6-14.1l-2.6-6.8c-1.4-4.4-1.5-9-.4-13.5l1.5-7.7c.6-3,.5-6,.3-9.2,2.6.7,5.1,1.2,7.7,1.1s1.5.3,2.1,1c3.2,3.4,5.2,7.5,6.2,12.1l1.9,10.9c.7,3.8,1.5,7.4,2.9,11,3.1,7.8,8.6,14.6,17.1,16.3,8.2,1.7,16.3-2.4,19.7-10.1,2-4.6,2.1-11.3-2.2-13.8s-4.6-1.2-6.8-.3-3,2.9-2.5,5.1,0,2.5-1,3.2-2.6.3-3.6-.5c-4.5-3.8-4.6-14.9-4.4-20.9.3-7.1.9-14,1.7-21s1.3-8.6,2.3-12.9c1.8-7.8,3.2-14.1,1.4-22.1-1.4-6.2-4-12-7.8-17.1-6.2-8.4-16-14.4-26.7-13.4-7.5.7-14.2,4-20.3,8.3-5.7-3.9-11.8-7.6-18.4-9.4-6.8-1.9-14-.9-20,2.8-6.4,3.9-10.2,9.6-12.9,16.5-11.7,1.2-23.1,5.2-31.6,13.3-7.7,7.3-12.9,16.6-15.1,26.9-2,4.1-3.8,8.2-5.1,12.5s-1.9,10.8-.9,16.4.7,5.1.4,7.8l-2.3,1.3c-6.3,3.5-9.1,9.5-6.3,16.3s.7,1.3,1.6,1.2c2.1-.1.4-3.2,4.1-6.8l2.7-2.7c2.8-2.8,3.9-9.2,3.5-13.1l-.6-6.6c-.4-4.2-.3-8.4,1-12.4l1.1-3.4c0,7.5,1.3,14.3,3.6,21.5l3.1,9.9c2.1,6.6,2.3,13.5.8,20.2l-2.3,8.4c-1.2,4.6-2.7,9.6-1.7,14.3s1.8,4,3.9,4.9c5.4,2.4,14.1,2.2,19.9.8s3.8-1.4,5-3.1c5.1,1.8,12.2,2,17.3.3s3.7-2.6,3.8-5-.4-3.6-1.2-5.4-1.7-4.6-1.7-7.2c-.1-6.3,1.7-12.1,3.8-18,.1-.4.5-.9.8-1,3.5-.4,6.8-.9,10.2-1.8l2.5,11.1c1.1,6,.8,11.9-.6,17.8s-1,4.4-1.1,6.6c-.2,4.6,3.8,6.7,8,7.5Z"/>
    <path d="M310.3,187.3c-4.3-.9-8.3-2.9-8-7.5s.6-4.4,1.1-6.6c1.5-5.9,1.8-11.8.6-17.8l-2.5-11.1c-3.4.9-6.7,1.4-10.2,1.8s-.7.6-.8,1c-2,5.9-3.9,11.7-3.8,18s.6,4.9,1.7,7.2,1.3,3.5,1.2,5.4-1.5,4.3-3.8,5c-5.1,1.7-12.2,1.5-17.3-.3-1.2,1.7-3,2.7-5,3.1-5.8,1.4-14.5,1.6-19.9-.8s-3.4-2.7-3.9-4.9c-1-4.8.5-9.7,1.7-14.3l2.3-8.4c1.5-6.8,1.3-13.6-.8-20.2l-3.1-9.9c-2.3-7.2-3.6-14-3.6-21.5l-1.1,3.4c-1.3,4-1.4,8.2-1,12.4l.6,6.6c.3,3.8-.7,10.2-3.5,13.1l-2.7,2.7c-3.6,3.7-2,6.7-4.1,6.8s-1.2-.5-1.6-1.2c-2.8-6.8,0-12.8,6.3-16.3l2.3-1.3c.3-2.6,0-5.1-.4-7.8-1-5.6-.7-11,.9-16.4s3.1-8.4,5.1-12.5c2.2-10.3,7.5-19.7,15.1-26.9,8.5-8.1,19.9-12.1,31.6-13.3,2.7-6.9,6.5-12.6,12.9-16.5,6.1-3.7,13.2-4.7,20-2.8,6.7,1.8,12.7,5.5,18.4,9.4,6.1-4.3,12.8-7.6,20.3-8.3,10.6-1,20.5,5,26.7,13.4s6.4,10.9,7.8,17.1c1.8,8,.5,14.4-1.4,22.1s-1.7,8.5-2.3,12.9c-.8,7-1.4,13.9-1.7,21-.3,6,0,17.1,4.4,20.9s2.4,1.2,3.6.5,1.2-2,1-3.2c-.5-2.2.5-4.2,2.5-5.1s4.7-.9,6.8.3c4.3,2.5,4.2,9.1,2.2,13.8-3.3,7.7-11.5,11.8-19.7,10.1-8.5-1.8-14-8.5-17.1-16.3s-2.2-7.2-2.9-11l-1.9-10.9c-1.1-4.6-3.1-8.7-6.2-12.1-.6-.7-1.2-1-2.1-1-2.6,0-5.1-.4-7.7-1.1.2,3.2.3,6.2-.3,9.2l-1.5,7.7c-1.1,4.5-1,9,.4,13.5l2.6,6.8c1.8,4.7,3.5,9.2,4.6,14.1l1.5,7,1.5,5.9c.4,1.6.8,3.2.7,4.9-.3,3.9-3.6,5.7-7.3,6.3s-10.5.7-15.6-.9c-1.5,2.8-4.8,4.3-8,4.9-5.2,1.1-10.5,1.1-15.6,0ZM305.1,142.5c2.9,11.6,4.7,20.4,1.7,32.3l-.8,4.4c-.3,1.5.8,3,2.2,3.6,4.2,1.8,11.4,1.7,16,.9s6-1.4,6.5-3.8,0-3.1-.6-4.6c-1.3-3.1-1.9-6.2-2.1-9.7-.5-11.5,1.2-25.9,5-36.7s1.3-1.3,2.1-1.1,1.3,1,1.1,1.9l-1.9,8.3c0,.3,0,.4.3.3,1.9-2.1,3.4-4.3,4.5-6.9,2.6-5.8,4.1-12,4.7-18.4v-5.6c0-.7-.5-1.3-1.1-1.6-2.1-1.2-4.2-2.6-5.8-4.3s-.6-2,0-2.6,1.7-.8,2.5-.2c3.3,2.8,7,4.9,11.3,5.8s2.9.5,4.3.2,1.8-.3,2.6.4c6.6,5.3,9.6,12.9,10.9,21.1l1.3,7.7c.6,3.3,1.5,6.5,2.8,9.6,2.7,6.3,7.6,11.5,14.4,12.8,8.3,1.5,15.8-4.7,15.9-13.1s-.4-2.3-1.1-3.1-2.2-1.1-3.4-.8-1.1.8-1,1.6c.3,1.8,0,3.7-1.2,5.2-2.4,3-7.5,2.8-10.4-.7s-4-8.8-4.4-13.4c-.3-3.6-.3-7-.1-10.7l1-15.3c-2.5-.9-5.1-.6-7.2.9s-1.4,0-1.6-.3-.4-1.3,0-1.7c2.4-2.1,5.9-2.4,9-1.6l.9-6.8c-3.8-1.3-7.3-1.3-10.6,1s-1.5.2-1.9-.5-.2-1.3.3-1.7c3.5-2.9,8.4-3,12.7-1.6l1.8-8.7,1.3-7c.5-3.9.2-7.7-.9-11.5-2.6-9.6-8.9-19-17.9-23.6-7.3-3.8-14.2-3.2-21.7,0s-5.3,2.6-7.9,4.2c1.3.8,1.6,2.1,1,3.2s-2,1.2-3,.4c-3.3-2.4-6.5-4.6-10-6.6-5.3-3.1-11.8-6.2-18-5.7s-11.2,3.3-15.1,7.7c-5.6,6.4-8.2,15.2-8.8,23.6s0,2.8.1,4.1,1,1.8,2,2l3.9.8c2.3.6,4.2,1.9,5.8,3.5,7,6.7,7.7,18.3,15.9,24.3s9.9,2.1,14-1.8,8.7-10.2,7.1-16.1l-1.6-6.3c-1.2-4.8-2.5-10.5.2-14.8s1.8-1.2,2.7-.7,1.3,1.7.8,2.7c-1.7,3.2-1.1,7.3-.2,10.9l1.6,6.2c2,7.8-2.2,15.8-7.7,21.2-4.8,4.6-11.8,6-17.8,3.1-4.7-2.3-7.5-6.8-9.8-11.4l-4-7.9c-1-2-2.2-3.7-3.7-5.3s-4.2-3.4-6.9-4.1l-2.5-.7c-1.9-.5-3.1-1.9-3.6-3.7-1.2-5.4,0-11.7,1.4-17.2-13.2,1.9-25.6,8.1-33.5,18.9s-9.1,17.8-9,27.9,2.4,16.6,5.3,25.6,2,6.3,2.6,9.6c1.2,6.7.9,13.6-1,20.2l-2.4,8.4-1.2,5.4c-.3,1.4-.2,2.9.1,4.3.5,2.5,3,3.3,5.5,3.7,4.5.7,11.6.7,15.5-1.2s1.6-3.5.8-5.7c-1.3-3.5-1.7-7.2-1-10.9l1.1-4.5,2.3-7.4c2.3-7.5,3.3-15.1,3-22.9s.7-1.6,1.5-1.7,1.6.4,1.7,1.3c.4,3.2.5,6.3.3,9.5s.3,1.4,1.2,1.7c7.8,2.7,17.5,2.1,25.6-.1-.2-2.4-.4-4.7-.2-7.1s.9-1.6,1.7-1.5,1.4.7,1.5,1.6c.1,3,.5,5.9,1.3,8.9ZM351.9,178.3c1.4-.8,1.3-2.9.8-4.7s-1.3-4.7-1.8-7.3c-1.2-6.8-3.2-13.2-5.9-19.5l-1.9-4.9c-.8-2.3-1.2-4.6-1.5-7.3-1.9,3.3-4.3,6.2-7.4,8.4s-.9.7-1,1.3c-1.2,7-1.8,14-1.4,21.1s.7,5.3,1.8,7.8.9,3.1,1.1,4.7.4,1,1.1,1.2c4.7,1.3,12.1,1.5,16.1-.9ZM224.4,144c.9-1.4,1.9-2.6,3.1-3.8,1.5-1.5,2.9-3,3.4-5.3-3.5,1.7-6.4,4.8-6.5,9ZM284.2,179.3c1.3-.4,2-1.5,1.8-2.8s-.6-2.3-1.1-3.5c-1.1-2.3-1.6-4.6-1.7-7.2-.1-3.6.3-7.1,1.1-10.7l2.6-9c-4.7,0-9.1-.7-13.5-2.4-.6,4.1-1.7,8-2.9,12l-2.5,8.2c-.9,3.4-.7,6.7.5,9.9s.8,3.1,1,4.8c.4.4,1.1.8,1.7.9,4.3,1,8.7.9,13-.3Z"/>
    <path class="st0" d="M305.1,142.5c-.8-3-1.2-5.9-1.3-8.9s-.7-1.6-1.5-1.6-1.6.6-1.7,1.5c-.2,2.3,0,4.6.2,7.1-8.1,2.2-17.8,2.8-25.6.1s-1.2-.8-1.2-1.7c.1-3.2,0-6.4-.3-9.5s-1-1.3-1.7-1.3-1.5.8-1.5,1.7c.2,7.8-.7,15.4-3,22.9l-2.3,7.4-1.1,4.5c-.7,3.7-.3,7.4,1,10.9s1.1,4.8-.8,5.7c-3.9,1.9-11,1.9-15.5,1.2s-5-1.2-5.5-3.7-.4-2.9-.1-4.3l1.2-5.4,2.4-8.4c1.9-6.6,2.2-13.4,1-20.2s-1.5-6.4-2.6-9.6c-2.9-9-5.2-15.9-5.3-25.6s3.1-19.8,9-27.9,20.3-17.1,33.5-18.9c-1.5,5.5-2.6,11.8-1.4,17.2.5,1.9,1.7,3.3,3.6,3.7l2.5.7c2.7.7,5.1,2,6.9,4.1s2.7,3.4,3.7,5.3l4,7.9c2.3,4.6,5.1,9.1,9.8,11.4,6,2.9,13,1.5,17.8-3.1,5.6-5.3,9.8-13.3,7.7-21.2l-1.6-6.2c-.9-3.6-1.6-7.7.2-10.9s.2-2.2-.8-2.7-2.1-.2-2.7.7c-2.8,4.3-1.5,10.1-.2,14.8l1.6,6.3c1.5,5.9-2.9,12.1-7.1,16.1s-9.3,5.2-14,1.8c-8.2-6-8.9-17.6-15.9-24.3s-3.6-2.9-5.8-3.5l-3.9-.8c-1.1-.2-1.9-.9-2-2s-.2-2.7-.1-4.1c.6-8.4,3.2-17.3,8.8-23.6s9.2-7.3,15.1-7.7,12.7,2.7,18,5.7,6.7,4.3,10,6.6,2.4.6,3-.4.3-2.4-1-3.2c2.6-1.6,5.1-3.1,7.9-4.2,7.4-3.1,14.4-3.8,21.7,0,8.9,4.7,15.3,14,17.9,23.6,1,3.8,1.4,7.6.9,11.5l-1.3,7-1.8,8.7c-4.3-1.4-9.2-1.3-12.7,1.6s-.6,1.3-.3,1.7c.3.7,1.3.9,1.9.5,3.3-2.3,6.8-2.3,10.6-1l-.9,6.8c-3.2-.8-6.6-.5-9,1.6s-.4,1.2,0,1.7,1.1.6,1.6.3c2.1-1.5,4.7-1.8,7.2-.9l-1,15.3c-.2,3.6-.2,7.1.1,10.7.4,4.6,1.4,9.9,4.4,13.4s8,3.7,10.4.7,1.5-3.3,1.2-5.2.2-1.4,1-1.6c1.2-.3,2.5-.1,3.4.8s1.1,2,1.1,3.1c0,8.4-7.6,14.6-15.9,13.1-6.8-1.2-11.7-6.5-14.4-12.8s-2.2-6.2-2.8-9.6l-1.3-7.7c-1.4-8.2-4.4-15.8-10.9-21.1s-1.6-.6-2.6-.4-2.9,0-4.3-.2c-4.2-.9-8-3-11.3-5.8s-1.9-.4-2.5.2-.8,1.8,0,2.6c1.7,1.7,3.7,3.1,5.8,4.3s1.1.9,1.1,1.6v5.6c-.5,6.4-2.1,12.5-4.7,18.4s-2.6,4.8-4.5,6.9c-.2.2-.3,0-.3-.3l1.9-8.3c.2-.9-.4-1.7-1.1-1.9s-1.8.2-2.1,1.1c-3.8,10.8-5.4,25.2-5,36.7s.8,6.5,2.1,9.7.9,3,.6,4.6c-.5,2.4-4,3.4-6.5,3.8-4.6.8-11.8.9-16-.9s-2.5-2-2.2-3.6l.8-4.4c3-11.9,1.2-20.7-1.7-32.3ZM357.1,78.9c1.1.4,1.9,1.3,2.1,2.4s1.2,1.7,2.3,1.5,1.6-1.1,1.4-2.2c-.4-2.2-1.8-4.1-3.9-5-3.1-1.4-6.8-.2-8.3,2.8s0,2,.9,2.4,1.8.2,2.4-.6,1.8-1.7,3.1-1.3Z"/>
    <path class="st0" d="M351.9,178.3c-4,2.4-11.5,2.2-16.1.9s-1-.6-1.1-1.2c-.2-1.6-.5-3.2-1.1-4.7-1.1-2.5-1.6-5-1.8-7.8-.4-7.1.1-14.1,1.4-21.1s.6-1,1-1.3c3.1-2.2,5.5-5.1,7.4-8.4.3,2.6.7,4.9,1.5,7.3l1.9,4.9c2.7,6.3,4.7,12.7,5.9,19.5s1,4.8,1.8,7.3.7,3.8-.8,4.7Z"/>
    <path class="st0" d="M284.2,179.3c-4.2,1.3-8.7,1.3-13,.3s-1.3-.5-1.7-.9c-.2-1.7-.4-3.2-1-4.8-1.2-3.2-1.4-6.5-.5-9.9l2.5-8.2c1.2-4,2.3-8,2.9-12,4.3,1.7,8.8,2.3,13.5,2.4l-2.6,9c-.8,3.6-1.2,7.1-1.1,10.7.1,2.6.6,4.9,1.7,7.2s.9,2.2,1.1,3.5-.5,2.4-1.8,2.8Z"/>
    <path class="st0" d="M224.4,144c0-4.2,3-7.3,6.5-9-.5,2.2-1.9,3.8-3.4,5.3-1.2,1.1-2.2,2.3-3.1,3.8Z"/>
    <path d="M357.1,78.9c-1.3-.4-2.5.3-3.1,1.3s-1.6,1-2.4.6-1.4-1.5-.9-2.4c1.6-3,5.2-4.3,8.3-2.8s3.5,2.9,3.9,5-.5,2-1.4,2.2-2-.4-2.3-1.5-1-2-2.1-2.4Z"/>
  </g>
</svg>