<?xml version="1.0" encoding="UTF-8"?>
<svg id="Capa_1" xmlns="http://www.w3.org/2000/svg" version="1.1" viewBox="0 0 595.3 257.5">
  <!-- Generator: Adobe Illustrator 30.4.0, SVG Export Plug-In . SVG Version: 2.1.4 Build 226)  -->
  <defs>
    <style>
      .st0 {
        fill: #fff;
      }
    </style>
  </defs>
  <g id="tela2">
    <path class="st0" d="M33.4,252.6v-114.2h514v114.2H33.4ZM294.7,241.7l.8-4.7c0-.3.7-.8,1.6-1,8.4-2.3,18.7-4,29.9-5.6,24.7-3.5,57.2-6.1,86.6-5.7,13.8.2,11.3.5,20.3,2.2l12.6,2.4c1.5.3,3.7.4,5.2.2s2.6-.6,2.4-1.1-1.7-1.1-3.7-1.5l-15.8-3.3c-1.4-.3-2.3-.6-2.6-1.1-1.8-2.2-1.8-4.3-.7-6.5,1.8-3.6,5.6-7,12.2-10.3s9.6-4.5,15.7-6.6,10.6-3.2,17.7-4.5,3.2-.5,5.2-.5h15.1s7.6-.1,7.6-.1c2.5,0,4.4-.5,4.7-.9s-.8-1-3.1-1.3-4.9-.3-7.5-.2h-16c-2.2.1-3.9,0-5.7-.3-20.3-3.5-31.1-8.4-38-13.9-5.3-4.1-8.4-8.9-5.5-13.1s1.4-1,3-1.3l12.1-3c3.8-.9,7.2-1.8,3.1-2.6s-7.8,0-11.5.8l-13.1,3.1c-1.5.4-3.3.6-5.4.6-16.6.7-34.1,0-49.9-1.3-20.2-1.6-43.9-4.2-58.9-7.6l-9.8-2.2c-.9-.2-1.6-.6-1.8-.9-.7-1.3-.8-2.6-.6-4s0-1.2-.7-1.8-2.7-.9-5.1-1-5.6.6-5.6,1.3v2.4c0,1.3.5,2.5-.2,3.7s-1.9.9-3.2,1.2c-14.6,3.9-33.6,7-55.4,8.7-15.1,1.2-36.3,1.8-52.5,1.9-4.3,0-8.4,0-12.7,0s-3.6-.1-4.8-.4l-14.5-3.2c-2.7-.6-5.5-1.2-8.7-1.6s-4.3-.3-6.1,0-2.9.7-1.8,1.2,3.1,1.1,5.2,1.6l14.3,3.2c1.1.3,2.2.6,2.4.9.5,1.2.9,2.4.7,3.6-.5,2.8-2.4,5.5-5.6,8.2s-6.1,4.1-10.8,6.1c-7.1,3-18.6,6.8-29.7,9s-3.7.5-5.8.5l-19.2.3c-4.7,0-9.8.1-10.1,1.1s4.2,1.3,9.3,1.3h21.3c1.6-.2,3.7,0,4.9.1,6.6,1,12.1,2.3,17.2,3.7,17.9,5,28.1,11.1,29.7,17.5s.4,4.3-1.3,6.4-1.9,1.3-4.1,1.8l-14.2,3.5c-1.8.5-3.4,1-3.8,1.6s1.5.6,2.5.8c3.2.4,7.6-.3,10.7-1l14.1-3.1c1.4-.3,3.4-.5,5.4-.6,8.5-.4,16.8-.4,25.5-.1,15.6.5,30.5,1.5,44.7,3.1s36.8,4.8,49.9,8.6,1.2.8,1.1,1.1l-.2,5.6c0,.6,1.6,1,3.7,1.1s4.3-.1,5.4-.6,1.6-1.2,1.7-1.8Z"/>
    <path d="M294.7,241.7c-.1.7-.5,1.3-1.7,1.8s-3.4.7-5.4.6-3.7-.6-3.7-1.1l.2-5.6c0-.4-.2-.9-1.1-1.1-13.1-3.8-30.6-6.5-49.9-8.6s-29-2.6-44.7-3.1-17-.2-25.5.1-3.9.2-5.4.6l-14.1,3.1c-3.1.7-7.5,1.4-10.7,1s-2.6-.4-2.5-.8c.4-.6,1.9-1.2,3.8-1.6l14.2-3.5c2.3-.6,3.5-1.1,4.1-1.8,1.7-2.1,1.9-4.2,1.3-6.4-1.7-6.4-11.8-12.5-29.7-17.5-5.1-1.4-10.6-2.6-17.2-3.7s-3.3-.3-4.9-.3h-21.3c-5,.2-9.6-.2-9.3-1.1s5.5-1,10.1-1.1l19.2-.3c2.1,0,4.3-.2,5.8-.5,11.1-2.2,22.6-6,29.7-9s8.2-3.9,10.8-6.1,5.1-5.4,5.6-8.2-.2-2.4-.7-3.6-1.2-.7-2.4-.9l-14.3-3.2c-2.1-.5-3.9-1-5.2-1.6s.3-.9,1.8-1.2,4.1-.3,6.1,0c3.2.5,6,1,8.7,1.6l14.5,3.2c1.2.3,3.1.4,4.8.4,4.3,0,8.4,0,12.7,0,16.2-.1,37.4-.7,52.5-1.9,21.7-1.7,40.7-4.8,55.4-8.7s3-.8,3.2-1.2c.7-1.3.2-2.5.2-3.7v-2.4c0-.7,2.6-1.3,5.6-1.3s4.4.4,5.1,1,.8,1.2.7,1.8c-.2,1.3,0,2.6.6,4s.9.7,1.8.9l9.8,2.2c15,3.4,38.7,6,58.9,7.6,15.8,1.3,33.3,1.9,49.9,1.3,2.1,0,3.9-.3,5.4-.6l13.1-3.1c3.7-.9,7.5-1.5,11.5-.8s.7,1.7-3.1,2.6l-12.1,3c-1.6.4-2.6.8-3,1.3-2.9,4.3.2,9,5.5,13.1,6.9,5.4,17.8,10.3,38,13.9,1.7.3,3.4.4,5.7.4h16c2.5-.1,5.3,0,7.5.1s3.4.8,3.1,1.3-2.1.9-4.7.9h-7.6c0,0-15.1.1-15.1.1-2,0-3.7.2-5.2.5-7.1,1.3-12.8,2.8-17.7,4.5s-11,4.3-15.7,6.6c-6.6,3.3-10.5,6.7-12.2,10.3-1.1,2.2-1.1,4.3.7,6.5s1.2.8,2.6,1.1l15.8,3.3c2,.4,3.5.9,3.7,1.5s-.8.9-2.4,1.1-3.7.1-5.2-.2l-12.6-2.4c-9-1.7-6.5-2-20.3-2.2-29.4-.4-61.9,2.3-86.6,5.7-11.2,1.6-21.5,3.3-29.9,5.6s-1.6.7-1.6,1l-.8,4.7ZM383.5,171c1.1,0,2.2-.3,3-.5l15.1-3.3,12.9-2.9c-16.3,0-31.3-.5-46.2-1.7-15.7-1.3-30.5-2.9-44.5-4.9s-15.2-2.5-22.6-4.1l-.7,2.9-.6,5.9c0,.2.2.7.7.8,5.3,1.6,11.3,2.9,18.5,4.1,18.4,3,41.6,4.7,64.3,3.4ZM250.4,170.3c15.3-1.1,31-3.6,39.3-6.6l.6-4.6c.2-1.5.3-2.9,0-4.4-8.7,2-17.5,3.7-27.7,5.1-12.8,1.8-26.6,3.1-41.6,3.8s-31.8,1.1-48.5,1.1l31.8,6.8c1.4.2,3.4.2,5,.2,13.9,0,27.6-.4,41.2-1.4ZM196.3,180.7c2.8-2.4,3.3-4.7,1.4-7.1s-1.1-.5-2-.7l-26.5-5.7-6.3-1.3c-.4,6.7-6.3,12.7-21.4,18.4-4.4,1.7-8.7,3.3-14.2,4.8l-8.9,2.4h8.8s35.2,0,35.2,0c1.8,0,3.6-.1,4.9-.4,14.2-2.6,24.3-6.5,28.9-10.4ZM418.2,191.5c1.4.2,2.7.3,4.3.3h41.9c-18.7-4.2-28.9-8.9-35.7-14.4-4.6-3.7-6.6-7.5-6.1-11.4l-4.3.8-22.5,4.9c-1.8.4-3.9.8-5.2,1.2-1.9,1.5-2.5,3-2.3,4.5.7,5.4,10,10.7,29.9,14ZM339.5,180.1c2.5-.1,4.1-.2,5.8-.6l26.8-5.8c-11.6,0-22.4-.3-32.9-1.2-15-1.3-28.1-3.2-39.6-5.8l-.7,2.7-.8,6.3c9.2,3.3,23.5,5.2,41.4,4.4ZM243.4,180.2c10.9.3,21.1-.1,30.5-1.1,5.9-.7,10.8-1.7,14.3-3l1.1-8.6c-11.2,2.5-24.3,4.2-39.3,5.1-11.7.7-23.3,1-35.7,1.1l29.1,6.4ZM371,192h33.7c-7.4-1.8-12.8-3.4-17.2-5.4-7.7-3.5-10.5-7.3-9.1-11.2l-28.6,6.2c-5.9,3.7.2,7.6,14.7,9.8,1.8.4,3.8.5,6.6.5ZM222,191.2c12-2.1,17.7-5.4,14.7-8.7,0-.6-1-1-3-1.4l-25.1-5.6c0,3.5-3.1,6.8-10,9.9-4.7,2.2-11.1,4.1-18.9,6l36.4.2c2.3,0,3.9,0,5.8-.4ZM304.2,188.5l27.5-6.1c-6.9-.1-12.9-.3-18.8-.9-5.8-.6-10.6-1.5-15-2.5l-.5.7-1.1,10.6,7.9-1.8ZM252.5,182.3l34.1,7.9,1.3-10.9c-6.1,1.2-13,2-20.7,2.4-4.8.3-9.5.4-14.7.5ZM281.6,192.1l-19.8-4.6-15.1-3.4c-.1,2.9-4,5.5-13.2,7.7h3.8c0,0,44.2.4,44.2.4ZM301.2,192.2l51.4-.2c-10.1-2.2-15.1-4.9-14.5-8l-36.9,8.1ZM196.5,209.1c-.2-4.4-6.3-8.6-17.5-12.2-3.5-1.1-7.6-2-12.2-2.9s-3-.4-4.7-.4h-30.6c-3.6,0-7,0-10.6.1,10.6,2.3,19.1,4.7,25.7,7.5,9,3.8,14.5,7.9,16.4,12.2s.7,4.6.6,6.9l28.3-6.3c4.1-.8,4.7-3.5,4.6-5ZM230.8,205.5l3-.8c6.3-4.3,1.7-8.5-15.6-11h-38.6c6.7,1.5,12,3.2,16.1,5.1,4.7,2.1,7.6,4.3,9.1,6.6,1.1,1.9,1.4,3.7.9,5.6l25.1-5.7ZM245.9,202.1l34-8-46.7-.3c5.1,1.2,8.6,2.6,10.7,4.1,1.8,1.4,2,2.8,2,4.2ZM398,215.6l22.9,5.1c-.9-5.7,3.6-11,13.7-16.1,7.7-3.8,16.7-7.5,29.5-10.6h-8.6c0,0-33.2,0-33.2,0-1.2,0-2.8.1-3.6.3-4.8.9-8.9,1.8-12.4,2.9-14.5,4.6-23.6,10.8-16.6,16.4l8.3,2ZM377.8,211.1c-.6-3,.7-5.6,4.8-8.3,3.6-2.4,8.8-4.6,15.3-6.7l7.5-2h-10.9s-24.6,0-24.6,0c-1.6,0-3,.2-4.2.4-14.1,2.5-21,6.2-15.5,10.1l27.6,6.4ZM338.9,202.1c.4-3.1,5.3-5.7,14.5-7.9h-23.6s-24.7.1-24.7.1l33.8,7.8ZM313.4,204.6c6.7-.5,13.1-.6,20.4-.5l-37.6-8.7-.4,11.6c5.6-1.1,10.9-1.9,17.7-2.4ZM285.8,206.9l.3-1.2.5-10.1-18.7,4.4-17.4,4.1c13.8,0,25.5.7,35.3,2.8ZM295.5,219.7c10.7-2.3,23-3.9,36.8-5,13.3-1.1,26.7-1.5,41.3-1.5l-29.5-6.7c-6.4-.4-12.6-.5-19.1-.3-11,.3-20.6,1.5-27.2,3.4s-2,.6-2,.9l-.5,7.5.3,1.7ZM278.7,218.3l6.7,1.4.4-9.5c-9.8-3.6-27.8-4.8-45.9-3.6-1.4.2-3,.5-4.2.8l-25.2,5.6c25.2-.2,49.1,1.6,68.1,5.2ZM270.7,230.1l14,2.9.4-2.4.2-7c0-.2-.6-.5-1.2-.7-14.6-4.3-37.4-7.1-61.6-7.5s-14.9,0-22.3.3c-.8,0-2.2.3-2.9.4l-22.7,5-4.8,1.1c12.5-.1,24.4.2,36.3.8,23.5,1.3,45.4,3.7,64.6,7.1ZM306.9,230.9c11.2-1.9,22.7-3.5,35-4.9,13.1-1.4,26.5-2.3,40.7-3,10.5-.5,20.8-.6,31.8-.5l-30.4-6.8c-21.7-.8-45.9.4-64.7,2.8-8.5,1.1-15.9,2.4-22,4.1s-1.8.7-1.9,1.1l-.5,8.1.4,1.4,11.6-2.2Z"/>
    <path class="st0" d="M196.3,180.7c-4.6,3.9-14.7,7.8-28.9,10.4s-3.1.4-4.9.4h-35.2s-8.8,0-8.8,0l8.9-2.4c5.5-1.5,9.8-3.1,14.2-4.8,15.1-5.7,20.9-11.7,21.4-18.4l6.3,1.3,26.5,5.7c.9.2,1.8.5,2,.7,2,2.4,1.4,4.8-1.4,7.1Z"/>
    <path class="st0" d="M398,215.6l-8.3-2c-7-5.6,2-11.8,16.6-16.4,3.6-1.1,7.7-2,12.4-2.9s2.5-.3,3.6-.3h33.2c0-.1,8.6,0,8.6,0-12.8,3-21.9,6.8-29.5,10.6-10.1,5.1-14.7,10.4-13.7,16.1l-22.9-5.1Z"/>
    <path class="st0" d="M306.9,230.9l-11.6,2.2-.4-1.4.5-8.1c0-.4.8-.8,1.9-1.1,6.2-1.7,13.5-3,22-4.1,18.8-2.4,43-3.6,64.7-2.8l30.4,6.8c-11,0-21.3,0-31.8.5-14.2.6-27.6,1.6-40.7,3-12.4,1.4-23.9,3-35,4.9Z"/>
    <path class="st0" d="M418.2,191.5c-19.9-3.2-29.2-8.6-29.9-14s.4-3,2.3-4.5c1.3-.5,3.4-.8,5.2-1.2l22.5-4.9,4.3-.8c-.6,3.9,1.5,7.7,6.1,11.4,6.8,5.5,17,10.3,35.7,14.3h-41.9c-1.6.1-2.9,0-4.3-.2Z"/>
    <path class="st0" d="M196.5,209.1c0,1.5-.5,4.2-4.6,5l-28.3,6.3c.1-2.4.4-4.6-.6-6.9-1.9-4.3-7.5-8.4-16.4-12.2-6.7-2.8-15.1-5.3-25.7-7.5,3.6-.1,7-.1,10.6-.1h30.6c1.8,0,3.4.2,4.7.4,4.7.9,8.7,1.7,12.2,2.9,11.3,3.6,17.4,7.8,17.5,12.2Z"/>
    <path class="st0" d="M383.5,171c-22.8,1.2-45.9-.5-64.3-3.4-7.2-1.2-13.1-2.5-18.5-4.1s-.7-.6-.7-.8l.6-5.9.7-2.9c7.4,1.5,14.4,2.9,22.6,4.1,14,2,28.8,3.6,44.5,4.9,14.9,1.2,29.9,1.7,46.2,1.7l-12.9,2.9-15.1,3.3c-.8.1-1.9.4-3,.5Z"/>
    <path class="st0" d="M270.7,230.1c-19.2-3.4-41.1-5.7-64.6-7.1s-23.8-1-36.3-.8l4.8-1.1,22.7-5c.7-.2,2.1-.4,2.9-.4,7.5-.4,14.7-.5,22.3-.3,24.2.5,47,3.2,61.6,7.5.6.2,1.2.5,1.2.7l-.2,7-.4,2.4-14-2.9Z"/>
    <path class="st0" d="M250.4,170.3c-13.6,1-27.2,1.4-41.2,1.4-1.6,0-3.6,0-5-.2l-31.8-6.8c16.7,0,32.5-.4,48.5-1.1s28.8-2,41.6-3.8c10.2-1.4,19-3.1,27.7-5.1.4,1.5.2,2.9,0,4.4l-.6,4.6c-8.3,3-24,5.5-39.3,6.6Z"/>
    <path class="st0" d="M295.5,219.7l-.3-1.7.5-7.5c0-.3,1.1-.7,2-.9,6.6-1.9,16.3-3.1,27.2-3.4,6.5-.2,12.8,0,19.1.3l29.5,6.7c-14.6,0-28,.4-41.3,1.5-13.8,1.1-26.1,2.7-36.8,5Z"/>
    <path class="st0" d="M278.7,218.3c-19-3.6-42.9-5.4-68.1-5.2l25.2-5.6c1.2-.3,2.8-.6,4.2-.8,18.1-1.2,36,0,45.9,3.6l-.4,9.5-6.7-1.4Z"/>
    <path class="st0" d="M230.8,205.5l-25.1,5.7c.4-1.9.2-3.7-.9-5.6-1.5-2.3-4.4-4.5-9.1-6.6-4.1-2-9.4-3.6-16.1-5.2h38.6c17.4,2.6,21.9,6.8,15.6,11.1l-3,.8Z"/>
    <path class="st0" d="M339.5,180.1c-17.9.8-32.2-1.1-41.4-4.4l.8-6.3.7-2.7c11.4,2.6,24.6,4.5,39.6,5.8,10.6.9,21.4,1.2,32.9,1.2l-26.8,5.8c-1.8.4-3.3.5-5.8.6Z"/>
    <path class="st0" d="M377.8,211.1l-27.6-6.4c-5.4-3.9,1.5-7.6,15.5-10.1s2.6-.4,4.2-.4h24.6c0-.1,10.9,0,10.9,0l-7.5,2c-6.5,2.1-11.6,4.3-15.3,6.7-4.1,2.7-5.4,5.3-4.8,8.3Z"/>
    <path class="st0" d="M243.4,180.2l-29.1-6.4c12.4-.1,24-.4,35.7-1.1,15-.9,28.1-2.6,39.3-5.1l-1.1,8.6c-3.4,1.3-8.4,2.2-14.3,3-9.5,1-19.6,1.4-30.5,1.1Z"/>
    <path class="st0" d="M222,191.2c-1.9.3-3.5.4-5.8.4l-36.4-.2c7.8-1.9,14.2-3.8,18.9-6,6.8-3.1,10-6.4,10-9.9l25.1,5.6c2,.4,3,.8,3,1.4,3,3.3-2.6,6.6-14.7,8.7Z"/>
    <path class="st0" d="M371,192c-2.8,0-4.8-.1-6.6-.5-14.5-2.2-20.6-6.2-14.7-9.8l28.6-6.2c-1.3,3.9,1.4,7.7,9.1,11.2,4.4,2,9.8,3.6,17.2,5.2h-33.7Z"/>
    <path class="st0" d="M313.4,204.6c-6.7.5-12.1,1.3-17.7,2.4l.4-11.6,37.6,8.7c-7.3,0-13.7,0-20.4.5Z"/>
    <path class="st0" d="M301.2,192.2l36.9-8.1c-.6,3,4.4,5.8,14.5,8l-51.4.2Z"/>
    <path class="st0" d="M285.8,206.9c-9.8-2.1-21.5-2.9-35.3-2.8l17.4-4.1,18.7-4.4-.5,10.1-.3,1.2Z"/>
    <path class="st0" d="M304.2,188.5l-7.9,1.8,1.1-10.6.5-.7c4.4,1,9.2,1.9,15,2.5,5.9.6,11.9.8,18.8.9l-27.5,6.1Z"/>
    <path class="st0" d="M252.5,182.3c5.2,0,9.9-.2,14.7-.5,7.7-.5,14.6-1.2,20.7-2.4l-1.3,10.9-34.1-7.9Z"/>
    <path class="st0" d="M281.6,192.1l-44.2-.3h-3.8c9.1-2.2,13.1-4.9,13.2-7.8l15.1,3.4,19.8,4.6Z"/>
    <path class="st0" d="M338.9,202.1l-33.8-7.8h24.7c0,0,23.6-.1,23.6-.1-9.2,2.2-14.1,4.8-14.5,7.9Z"/>
    <path class="st0" d="M245.9,202.1c0-1.4-.2-2.8-2-4.2-2-1.5-5.5-2.8-10.7-4.1l46.7.3-34,8Z"/>
  </g>
  <g id="elefante2">
    <path class="st0" d="M279.1,152.9l1.9-9.6.9-.5c2.9.2,5.5,0,8.2-.5h.6c.1.2-.3,5.6,0,8.6.7,8.4,5.3,16.1,14.2,18.8-1.1,5.6-3.3,12.9,2.6,15.6s16.1,3.3,23.3,1.7,4.2-1.4,6.2-2.3c8,3.8,18.7,4.1,27.3,2.1s5.4-1.9,7.6-3.4,2.7-3,2.8-5.1c0-4.3-.4-8.5-.9-12.8-.5-4.9-.7-9.6-.3-14.5s.4-1.2,1.2-1.1c4.2.3,8.3.2,12.4-.7l.5.6-2.7,17.7-1.3,9.7c-.3,2.5,1.2,4.9,3.6,6,7.7,3.5,17.6,4.1,25.9,2.5s12.8-4.2,12.8-9c0-6.9-.5-13.7-1.3-20.6-.9-8.4.4-16.4,3.6-24.2,2.2-5.2,3.8-10.4,5.4-16.1l2.1,7.7c.7,2.7,2.3,4.9,3.7,7.3l-.2,5.4c.5,3.9,3.2,8.6,5.4,7.7s.9-1.2.7-1.7l-1.7-4.9c1.9,2.1,5,4.8,6.3,3s-1.8-3-3.3-5.5c-.1-.1.3-.2.5,0,2.7.9,6.2,1.3,6.4-.7s-.5-1.5-1.3-1.8c-2.5-.7-4.8-1.6-7.1-2.9s-2.1-1.5-2.7-2.8c-1.4-2.7-2.5-5.4-2.9-8.4l-1.4-10.4c-.4-4.4-.9-8.8-2.4-13l-1.9-6.7c-1.9-8.4-5.9-16.1-11.5-23-6.4-7.8-15.4-13.4-25.6-16.1-.5-.4-.6-1.4-.5-2,.9-9.5-2.2-19-8.7-26.3l-2.5-2.3c-9.1-7.4-21.4-8.7-32.9-5.6s-14.3,5.7-19.9,10.7l-3.8,4.1c-9.6-2.8-19.9-2.2-29,1.8s-5,2.4-7.4,3.8-1.8.6-2.8.3c-14.3-4-29.5,2.5-35.9,15s-4.1,14.7-1.7,22.2,4.6,9.7,8.4,14.2c-6.3-.1-11.9,1.3-16.9,4.5s-1.4.6-2.1.5c-4.4-1.1-8.9-1.2-13.2.2-8.6,2.7-14,10.2-13.3,18.6s-.2,1.3-.9,1.4c-4.9,1.2-9.2,3.4-12.9,6.6-6.4,5.5-9.7,13-10.8,21s-.7,2-1.5,2.8c-2.6,2.7-4.5,5.9-5.8,9.4-.6,2.3-.9,4.5-1,6.9-.9,2.8-2.9,5.1-5.3,6.9s-.7,1.3-.5,1.7,1.2.9,1.9.7c1.6-.4,2.5-1.4,3.9-2.4l-1,3.7c-.2.6.4,1.4.9,1.6,1.8.6,2.9-2,3.5-4.2l.7,2.5c0,.3,1,.7,1.3.7s1-.5,1.2-.8c1.3-3.4-.4-6.8-2.6-9.7-.2-4,1.2-8,4-11.1.6,3.9,1.2,7.5,2.3,11.1,1.7,5.8,2.2,11.6,1.4,17.6l-.3,5.4c-.4,6.5,10.3,8.2,16.8,7.8s5.2-.6,7.3-1.8,2-.9,3.3-.8c5,.4,11.7-1.1,11.8-6.1l-.6-5c-.2-1.3-.3-2.6,0-3.8l6.2-1-.4,4.1-.9,7.2c-.3,2.6,1.4,4.7,4,5.8,5.3,2.1,11.3,2.5,17,1.4s4.8-3,6.9-2.8c4.6.5,9.7,0,13.6-2.2s2.8-4.9,2.1-8.1c-1.8-7.3-2.2-14.6-1.1-22.1Z"/>
    <path d="M279.1,152.9c-1.1,7.4-.7,14.8,1.1,22.1s.8,6.4-2.1,8.1-9,2.7-13.6,2.2-2.5,1.9-6.9,2.8-11.7.8-17-1.4-4.3-3.2-4-5.8l.9-7.2.4-4.1-6.2,1c-.2,1.1,0,2.5,0,3.8l.6,5c0,5-6.8,6.5-11.8,6.1s-2.2.2-3.3.8c-2.2,1.2-4.8,1.6-7.3,1.8-6.5.4-17.1-1.3-16.8-7.8l.3-5.4c.8-6,.3-11.8-1.4-17.6s-1.7-7.2-2.3-11.1c-2.8,3.1-4.2,7.1-4,11.1,2.1,2.9,3.9,6.3,2.6,9.7s-.8.8-1.2.8-1.2-.3-1.3-.7l-.7-2.5c-.6,2.3-1.7,4.8-3.5,4.2s-1-1-.9-1.6l1-3.7c-1.3,1-2.3,2-3.9,2.4s-1.6-.2-1.9-.7,0-1.3.5-1.7c2.4-1.8,4.4-4.1,5.3-6.9.1-2.4.4-4.6,1-6.9,1.3-3.5,3.1-6.6,5.8-9.4s1.4-1.7,1.5-2.8c1.1-8,4.4-15.5,10.8-21s8-5.4,12.9-6.6,1-.8.9-1.4c-.7-8.4,4.7-16,13.3-18.6s8.8-1.3,13.2-.2c.7,0,1.5,0,2.1-.5,4.9-3.2,10.6-4.6,16.9-4.5-3.9-4.4-6.8-8.9-8.4-14.2-2.3-7.4-1.8-15.2,1.7-22.2,6.3-12.5,21.6-19,35.9-15s1.9.2,2.8-.3c2.5-1.4,4.8-2.7,7.4-3.8,9.1-3.9,19.4-4.6,29-1.8l3.8-4.1c5.6-5,12.4-8.7,19.9-10.7,11.5-3.1,23.8-1.8,32.9,5.6l2.5,2.3c6.5,7.3,9.6,16.8,8.7,26.3,0,.7,0,1.6.5,2,10.2,2.7,19.1,8.2,25.6,16.1,5.6,6.8,9.6,14.6,11.5,23l1.9,6.7c1.5,4.2,2,8.5,2.4,13l1.4,10.4c.4,3,1.6,5.7,2.9,8.4s1.5,2.1,2.7,2.8c2.3,1.3,4.6,2.1,7.1,2.9s1.4,1.1,1.3,1.8c-.2,1.9-3.7,1.6-6.4.7-.1-.1-.6,0-.5,0,1.5,2.4,4.6,3.7,3.3,5.5s-4.5-.9-6.3-3l1.7,4.9c.2.6-.2,1.5-.7,1.7-2.2,1-4.9-3.8-5.4-7.7l.2-5.4c-1.4-2.4-2.9-4.7-3.7-7.3l-2.1-7.7c-1.6,5.7-3.2,10.8-5.4,16.1-3.3,7.8-4.5,15.8-3.6,24.2.7,6.9,1.2,13.7,1.3,20.6s-7.8,8-12.8,9c-8.3,1.6-18.2.9-25.9-2.5-2.4-1.1-4-3.5-3.6-6l1.3-9.7,2.7-17.7-.5-.6c-4.1,1-8.2,1.1-12.4.7s-1.1.5-1.2,1.1c-.4,4.9-.2,9.6.3,14.5.5,4.3.9,8.5.9,12.8s-1,3.9-2.8,5.1-4.8,2.8-7.6,3.4c-8.6,2-19.3,1.7-27.3-2.1-2,.9-4,1.8-6.2,2.3-7.2,1.6-16.7,1.3-23.3-1.7s-3.8-10-2.6-15.6c-8.9-2.7-13.6-10.5-14.2-18.8s.2-8.4,0-8.5h-.6c-2.7.5-5.4.6-8.2.4l-.9.5-1.9,9.6ZM332.6,136.6c-.3-1.3.8-2.5,2-2.4s2.2.9,2.5,1.9l2.2,6.4c3.6,10.2,3.5,19.1,2,29.7l-.7,5c2.3-2.1,5-3.2,8.2-2.8,4.6.7,8,4.1,8.5,8.6,3.9,0,12-2,11.7-5.2l-.8-9.1c-.7-7.4-.9-14.7,0-22.2s.7-6.3,3.1-6.5,1.8.4,2.2,1.1c1.1,1.8.2,3.7.8,4l.8.3c4.1.2,8.1-.3,11.9-1.6.9-.3,1.4-1,1.6-1.9l1.4-5.5c.3-1.2,1.8-1.9,3-1.5s2,1.8,1.8,3.1l-1.2,10c-.7,7.3-1.8,14.4-3,21.6l-.7,4.4c0,0,.1.5.2.5l.3-.3c2.6-2.2,6.3-3.1,9.7-1.8s6,4.4,6.4,8c0,.4.6.8,1,.8,4.3-.4,8.8-1.3,12-4s.8-1.5.8-2.2l-.9-12.4c-.3-4.5-.9-8.8-.8-13.3.2-6.8,1.6-13.1,4.2-19.4,2.2-5.4,4-10.6,5.2-16.3,3-13.9.8-28.4-7.1-40.5-6.1-9.4-14.1-15.6-25.5-19-1.3,3.4-3,6.2-5,9.1l-3.8,5.5c-1.9,3.3-2.4,6.8-1.6,10.6,1,4.5,1,8.9-.6,13.2-2,5.5-6.8,9.4-12.9,10.6-11.7,2.4-23.8-4.1-28.5-14.3-.4-.8.3-2,.9-2.3s1.9-.2,2.4.4l4.8,5c5.7,4.7,13.9,7.2,21.1,4.6s7.4-9.7,5.5-16.1c-1.5-5.1-.9-10.1,2-14.7l4-5.6,3.4-5.2c1.8-3.4,2.7-7,2.6-10.9-.2-5-1.4-9.9-3.6-14.5-1.2-2.4-2.5-4.6-4.5-6.4-8.8-7.8-22.6-6.5-33.2-2.2s-10.5,5.4-14.7,9.5l-5,5.7c-.6.7-1.8.9-2.6.6s-1.3-1.3-1.1-2.1l.6-2.4c-1.3-.5-2.5-.7-3.9-.9-12.1-1.2-24.9,4.4-33,12.6-11.9,11.9-14.5,28.1-8.1,43.2,1.8,4.3,3.9,8.3,6.3,12.2s4.4,11.2,3.7,17.5c-.1,2.2,1.4,4.5,2.3,6.4.8-.9.7-1.9.4-2.9-.8-2.6,0-5.4,2.7-6.7s5-.6,7,1,2.8,3.3,3.4,5.5c1.9,7.7-2.3,15.5-9.6,19.8l-.7,7.5c-.7,6.9,2.7,15.6,10.4,18s6.5.9,9.4-.6c5.3-2.8,5.7-8.3,4.3-8.7s-1,.1-1.3.3c-3.1,2-7.1,1.3-9-1.8s-.2-9,1.8-13.2l4.2-8.6c2.6-6,3.7-12.3,3.3-18.9-.2-3.8-1-7.3-1.8-11s-.1-2,.5-2.8,1.4-.8,2-.6,1.5.7,1.8,1.3c2.1,3.8,3,7.8,3.4,12,0,.3.2.8.4.8l1.1.2c3.8-.8,7.1-2.2,10.3-4.2,3.1-2,5.8-4.3,8.3-6.8s1.8-.8,2.5-.4c2.6,1.6-2,6.9-4.7,9.2-4.5,3.9-10.2,6.3-16.4,7.1s-1.3.6-1.4,1.3c-.8,8.4-4,14.9-8.1,22.2s-4.8,8.6-2.4,10.7,3.5-2.4,6.9-1.3,5,6.8,2.9,11.2-7.4,7.8-13.1,8-1.2.4-1.3,1.2l-.9,7.3c2.9-3,7-4.2,10.8-2.4s4.3,3.5,4.9,6.2c.7.3,1.5.2,2.2.1,2.5-.4,4.9-.8,6.9-2.3s.5-1.4.5-2l1.7-12.3c.9-6.2.7-12.3-.8-18.4l-2.7-11.2ZM275.2,88.8l-2-5.3c-6.1-15.7-.3-33.5,12.3-45.3-2.4-.7-4.5-.6-6.7-.3-14.2,1.7-23.2,13.2-21.7,26.4.6,5.9,3.1,11.1,6.8,15.8l4.5,5.7,6.9,2.9ZM215.6,179.3c-.8-5.5-1.2-12.6.9-17.1s1.6-1.3,2.4-1.1,1.6,1,1.7,2.1l.3,1.9c5.2,1.5,10.6,1.6,15.7,0s1.4-.9,1.4-1.7v-2.6c.2-.9,1.1-1.7,2-1.7s1.9.5,2.2,1.3c2,6,.6,13.2-.6,19.5s-.3,2.1.5,2.7c2,1.4,4.5,1.9,7,1.8,1.7-4,5-6.5,9.6-5.2-1.9-11.3,2.6-23.6,10.8-31.7l5.4-5.3c1.4-1.3-2.9-1.4-5.5-5s-.5-1.8.2-2.3,1.6-.5,2.4,0c6.5,4.7,15.4,5.3,22.3,1.1s8-7.9,7.7-13.3-1.7-6-3.5-5.7-1.5,1.6-1.1,3.2c.6,2.3,0,4.7-1.9,6.3s-3.4,1.8-5.5,1.5c-4.1-.7-5.9-5-5.5-9l.5-5.3c.2-11.8-9-22-21.5-23.8s-11.5.2-15.5,3.1c1.5,1.4,3,2.6,3.9,4.4s0,1.9-.6,2.3-1.9.3-2.5-.3c-2.9-3.1-6.6-5.2-11.1-5.7s-10.6,1.2-14,5-4.4,10.3-1.7,15.4,2.8,4.2,4.9,5.8l5.1,4.1c2.8,2.3,4.3,5.4,4.9,8.8s1.8,3.9,4,4.5,4.5-.3,6.1-1.8c3.7-3.3,3-7.5,5.4-8.3s2.9.7,2.8,2.1c0,4-2,7.8-5.3,10.4s-7,3.2-10.7,2.2-6.9-4.5-7.6-8.5-1.9-4.8-4.1-6.6l-5.3-4.1c-2.3-2-4.1-4.3-5.4-7s-.7-1.1-1.5-.9c-6.4,1.8-11.7,5.7-15.1,11s-5.7,15.1-4.5,23.1l1.7,7.7c1.5,5.5,2.2,10.9,1.6,16.6l-.8,6.9c-.3,2.6,3.7,3.7,6.7,3.9,1-2.3,2.6-4,5-4.9s3.9-.4,6,.5ZM264.9,181.1c4.2.5,11.7-.5,10.8-3.6-2.6-9.3-2.8-18.7-1.1-28.4-5.1,4.9-8.3,10.8-10.4,17-1.1,4.6-1.2,9.1-.5,13.7s.3,1.2,1.2,1.3ZM227.7,178.3c-.6-2.6-.9-5.2-1-7.8l-5.5-1.1c-.3,0-1,0-1,.3-.1,1.2-.2,2.7-.1,3.9l.7,7.7c3.3.3,7.6-.3,7-3ZM401.7,181.2c-.2-1.8-1-3.1-2.1-4.1-1.3-1-2.9-1.4-4.5-.7s-2.9,1.7-3.5,3.2c3.2,1.2,6.6,1.7,10,1.6ZM352.5,183.1c-.3-2.4-2.2-4.5-4.8-4.6s-4.2,1.6-5,3.5c3.3.9,6.4,1.4,9.7,1.1ZM320.3,183.3c-.4-2.1-2.1-3.7-4.3-3.6s-3.4,1.2-4,2.6c2.9.8,5.5,1.2,8.4,1ZM214.7,183c-.8-1.4-2.3-1.7-3.6-1.2s-1.8,1.2-2.2,2.3c2.2.1,4.1,0,5.9-1.1ZM258.8,183.1c-.8-1.1-2.2-1.4-3.5-.8s-1.7,1.3-2.1,2.4c2.2-.1,5-.4,5.5-1.6Z"/>
    <path class="st0" d="M332.6,136.6l2.7,11.2c1.5,6.1,1.6,12.2.8,18.4l-1.7,12.3c0,.6,0,1.6-.5,2-2,1.4-4.4,1.9-6.9,2.3s-1.5.1-2.2-.1c-.6-2.6-2.3-4.9-4.9-6.2-3.8-1.8-7.9-.6-10.8,2.4l.9-7.3c0-.7.5-1.1,1.3-1.2,5.6-.2,10.7-3.2,13.1-8s1.4-9.9-2.9-11.2-5.7,2.4-6.9,1.3c-2.4-2,.7-7.6,2.4-10.7,4.1-7.3,7.3-13.8,8.1-22.2,0-.7.6-1.2,1.4-1.3,6.1-.8,11.8-3.1,16.4-7.1,2.7-2.3,7.3-7.6,4.7-9.2s-1.8-.3-2.5.4c-2.6,2.5-5.2,4.9-8.3,6.8-3.2,2-6.5,3.4-10.3,4.2l-1.1-.2c-.2,0-.4-.5-.4-.8-.4-4.2-1.3-8.3-3.4-12s-1.2-1.1-1.8-1.3-1.6.1-2,.6c-.7.7-.8,1.8-.5,2.8.8,3.7,1.6,7.2,1.8,11,.4,6.5-.7,12.8-3.3,18.9l-4.2,8.6c-2.1,4.2-4.4,9-1.8,13.2s5.9,3.8,9,1.8,1-.4,1.3-.3c1.4.4,1,6-4.3,8.7s-6.2,1.6-9.4.6c-7.7-2.4-11.1-11.1-10.4-18l.7-7.5c7.3-4.3,11.5-12.1,9.6-19.8s-1.6-4.1-3.4-5.5-4.7-2.1-7-1-3.5,4.2-2.7,6.7.4,2-.4,2.9c-.8-1.9-2.4-4.2-2.3-6.4.7-6.3-.4-12.1-3.7-17.5s-4.5-8-6.3-12.2c-6.4-15.1-3.8-31.2,8.1-43.2,8.2-8.2,20.9-13.8,33-12.6s2.6.4,3.9.9l-.6,2.4c-.2.8.4,1.9,1.1,2.1s2,.2,2.6-.6l5-5.7c4.1-4.2,9.1-7.3,14.7-9.5,10.6-4.3,24.5-5.6,33.2,2.2,2,1.8,3.4,4,4.5,6.4,2.3,4.6,3.4,9.5,3.6,14.5.2,3.9-.7,7.5-2.6,10.9l-3.4,5.2-4,5.6c-2.9,4.5-3.4,9.6-2,14.7,1.9,6.4,1.5,13.6-5.5,16.1s-15.4,0-21.1-4.6l-4.8-5c-.6-.6-1.8-.7-2.4-.4s-1.3,1.4-.9,2.3c4.8,10.2,16.8,16.6,28.5,14.3s10.9-5.1,12.9-10.6c1.6-4.3,1.6-8.7.6-13.2-.8-3.7-.3-7.2,1.6-10.6l3.8-5.5c2-2.9,3.7-5.7,5-9.1,11.5,3.4,19.4,9.7,25.5,19,8,12.2,10.1,26.6,7.1,40.5-1.2,5.6-2.9,10.9-5.2,16.3-2.6,6.3-4,12.6-4.2,19.4s.5,8.8.8,13.3l.9,12.4c0,.7-.2,1.8-.8,2.2-3.2,2.7-7.7,3.6-12,4s-1-.5-1-.8c-.4-3.6-2.8-6.6-6.4-8s-7-.4-9.7,1.8l-.3.3c0,0-.2-.4-.2-.5l.7-4.4c1.2-7.3,2.4-14.3,3-21.6l1.2-10c.2-1.3-.5-2.7-1.8-3.1s-2.7.3-3,1.5l-1.4,5.5c-.2.9-.7,1.6-1.6,1.9-3.9,1.3-7.8,1.8-11.9,1.6l-.8-.3c-.6-.2.3-2.1-.8-4s-1.4-1.2-2.2-1.1c-2.4.1-2.8,3.6-3.1,6.5-.8,7.4-.6,14.7,0,22.2l.8,9.1c.3,3.2-7.8,5.3-11.7,5.2-.5-4.4-3.9-7.9-8.5-8.6s-5.9.7-8.2,2.8l.7-5c1.4-10.5,1.6-19.4-2-29.7l-2.2-6.4c-.3-1-1.4-1.8-2.5-1.9s-2.3,1.2-2,2.4ZM316,79.7c1.1-1.9,3.5-2.3,5.2-1.1l1.8,1.3c.6.4,1.7.5,2.2,0,2.1-1.5-.9-5.5-5-6.5s-7.9,1.2-9,4.9-.7,7.1,1.8,6.8,1.4-2.9,2.9-5.5Z"/>
    <path class="st0" d="M215.6,179.3c-2-.9-4-1.3-6-.5s-4,2.6-5,4.9c-3.1-.2-7-1.3-6.7-3.9l.8-6.9c.6-5.7,0-11.1-1.6-16.6l-1.7-7.7c-1.1-8,0-16.2,4.5-23.1s8.7-9.2,15.1-11,1.2.3,1.5.9c1.3,2.7,3.1,5,5.4,7l5.3,4.1c2.2,1.7,3.6,3.9,4.1,6.6.7,4,3.4,7.3,7.6,8.5s7.7.2,10.7-2.2,5.2-6.4,5.3-10.4-1.5-2.6-2.8-2.1c-2.4.8-1.7,5-5.4,8.3s-3.9,2.4-6.1,1.8-3.6-2.4-4-4.5c-.6-3.4-2-6.5-4.9-8.8l-5.1-4.1c-2.1-1.7-3.7-3.5-4.9-5.8-2.6-5-2.2-11,1.7-15.4s8.8-5.7,14-5,8.2,2.6,11.1,5.7,1.9.6,2.5.3,1-1.4.6-2.3c-.9-1.8-2.4-3-3.9-4.4,4-2.9,10.7-3.8,15.5-3.1,12.5,1.8,21.8,12.1,21.5,23.8l-.5,5.3c-.3,4,1.4,8.3,5.5,9s4-.2,5.5-1.5,2.5-4,1.9-6.3,0-3,1.1-3.2c1.9-.3,3.4,3.1,3.5,5.7.2,5.4-2.9,10.3-7.7,13.3-6.9,4.2-15.9,3.6-22.3-1.1s-1.9-.5-2.4,0-.7,1.6-.2,2.3c2.6,3.7,6.9,3.7,5.5,5l-5.4,5.3c-8.2,8.1-12.7,20.4-10.8,31.7-4.6-1.3-7.9,1.3-9.6,5.2-2.5,0-5-.5-7-1.8s-.7-1.8-.5-2.7c1.1-6.3,2.5-13.4.6-19.5s-1.4-1.4-2.2-1.3-1.8.8-1.8,1.7v2.6c-.2.8-.7,1.5-1.5,1.7-5.2,1.5-10.5,1.4-15.7,0l-.3-1.9c-.1-1-.7-1.8-1.7-2.1s-2,.2-2.4,1.1c-2.1,4.5-1.6,11.6-.9,17.1ZM269.6,115.4c.4-.5,1.5-.9,2.2-.8,1.8.4,1.8,2.8,3.8,2.5s1.4-.9,1.3-1.8c-.5-2.8-3.2-5-6.3-4.7s-5.5,3.3-5.1,6.3.9,1.1,1.4,1.2,1.2-.3,1.5-.7l1.4-2Z"/>
    <path class="st0" d="M275.2,88.8l-6.9-2.9-4.5-5.7c-3.7-4.8-6.2-10-6.8-15.8-1.4-13.2,7.5-24.7,21.7-26.4,2.2-.3,4.3-.4,6.7.3-12.6,11.8-18.4,29.6-12.3,45.3l2,5.3Z"/>
    <path class="st0" d="M264.9,181.1c-.9,0-1.1-.7-1.2-1.3-.6-4.7-.6-9.1.5-13.7,2-6.2,5.3-12.1,10.4-17-1.7,9.7-1.6,19.1,1.1,28.4s-6.5,4.1-10.8,3.6Z"/>
    <path class="st0" d="M227.7,178.3c.6,2.7-3.7,3.4-7,3l-.7-7.7c-.1-1.2,0-2.7.1-3.9s.8-.4,1-.3l5.5,1.1c.1,2.6.5,5.2,1,7.8Z"/>
    <path class="st0" d="M401.7,181.2c-3.5.1-6.8-.4-10-1.6.6-1.6,1.9-2.6,3.5-3.2s3.2-.3,4.5.7c1.1,1,1.9,2.2,2.1,4.1Z"/>
    <path class="st0" d="M352.5,183.1c-3.4.3-6.5-.2-9.7-1.1.7-1.9,2.7-3.5,5-3.5s4.4,2.1,4.8,4.6Z"/>
    <path class="st0" d="M320.3,183.3c-2.8.3-5.5-.2-8.4-1,.7-1.4,2.3-2.5,4-2.6s4,1.5,4.3,3.6Z"/>
    <path class="st0" d="M214.7,183c-1.8,1.1-3.7,1.2-5.9,1.1.5-1.1,1.2-1.8,2.2-2.3s2.8-.2,3.6,1.2Z"/>
    <path class="st0" d="M258.8,183.1c-.6,1.2-3.4,1.5-5.5,1.6.4-1.1,1.1-1.8,2.1-2.4s2.7-.3,3.5.8Z"/>
    <path d="M316,79.7c-1.5,2.6-.6,5.3-2.9,5.5s-2.7-3.8-1.8-6.8,5-5.8,9-4.9,7.2,5.1,5,6.5-1.6.4-2.2,0l-1.8-1.3c-1.7-1.3-4.2-.8-5.2,1.1Z"/>
    <path d="M269.6,115.4l-1.4,2c-.3.4-1,.8-1.5.7s-1.3-.6-1.4-1.2c-.4-3,1.8-5.9,5.1-6.3s5.8,1.9,6.3,4.7-.5,1.7-1.3,1.8c-2,.3-2-2.1-3.8-2.5s-1.8.2-2.2.8Z"/>
  </g>
</svg>